<?xml version="1.0" encoding="UTF-8" standalone="no"?>
<!DOCTYPE svg PUBLIC "-//W3C//DTD SVG 1.1//EN" "http://www.w3.org/Graphics/SVG/1.1/DTD/svg11.dtd">
<svg xmlns="http://www.w3.org/2000/svg" version="1.1" viewBox="0.00 0.00 500.00 500.00">
<g stroke-width="2.00" fill="none" stroke-linecap="butt">
<path stroke="#808080" vector-effect="non-scaling-stroke" d="
  M 461.74 172.36
  L 461.75 172.36
  Q 461.91 172.29 461.85 172.13
  Q 441.29 118.94 397.69 82.44
  Q 369.86 59.13 334.53 45.98
  Q 293.02 30.51 249.00 32.54
  Q 223.73 33.71 201.86 40.01
  Q 192.17 42.81 182.80 46.15
  Q 167.17 51.73 150.68 61.20
  Q 116.40 80.91 91.31 111.18
  Q 57.80 151.61 46.64 203.85
  C 34.34 261.47 45.78 321.30 78.45 370.19
  C 104.60 409.32 143.49 439.78 188.88 455.02
  Q 241.56 472.71 294.50 463.71
  Q 342.99 455.46 383.40 427.49
  Q 383.48 427.42 383.43 427.33
  L 383.42 427.33
  Q 383.32 427.16 383.14 427.26
  Q 376.38 431.18 369.23 434.73
  Q 326.09 456.13 276.94 455.61
  Q 267.61 455.51 257.55 454.29
  Q 198.64 447.11 153.15 409.96
  C 128.18 389.56 108.32 362.13 96.33 332.98
  Q 70.17 269.35 88.41 201.91
  C 96.91 170.49 113.86 141.25 136.00 118.39
  C 178.21 74.78 236.42 52.30 297.02 57.25
  Q 323.26 59.40 347.08 68.02
  C 398.22 86.54 438.60 123.21 461.54 172.28
  Q 461.60 172.42 461.74 172.36"
/>
<path stroke="#0f375c" vector-effect="non-scaling-stroke" d="
  M 249.62 74.78
  Q 238.99 76.29 228.60 79.31
  A 0.05 0.05 0.0 0 0 228.63 79.40
  Q 245.47 76.84 263.38 76.79
  C 341.64 76.61 413.07 126.07 439.15 200.44
  C 469.74 287.68 432.31 381.61 352.56 426.64
  Q 352.45 426.70 352.51 426.81
  L 352.51 426.81
  Q 352.57 426.93 352.68 426.87
  C 377.62 415.41 399.73 398.45 416.90 377.13
  Q 456.10 328.47 458.65 266.05
  Q 459.05 256.37 458.21 246.26
  Q 453.48 189.16 419.11 144.71
  C 387.92 104.38 339.70 78.19 288.92 73.99
  C 279.89 73.25 270.23 72.67 261.09 73.55
  Q 255.99 74.04 250.77 74.63
  Q 250.20 74.70 249.62 74.78"
/>
<path stroke="#0f375c" vector-effect="non-scaling-stroke" d="
  M 293.11 429.33
  Q 291.61 429.61 293.13 429.71
  Q 294.91 429.82 296.67 429.61
  C 367.45 420.89 424.34 366.88 439.60 297.57
  C 449.10 254.42 441.04 208.46 418.18 171.39
  C 391.84 128.66 348.71 99.99 298.85 92.58
  C 295.88 92.14 292.93 92.19 289.99 91.62
  Q 289.88 91.60 289.98 91.65
  C 292.35 92.83 294.78 92.81 297.20 93.35
  Q 353.73 106.07 391.64 148.57
  C 418.20 178.34 432.76 216.47 434.12 256.26
  C 435.24 289.37 426.13 322.33 408.76 350.31
  C 382.96 391.85 341.21 420.18 293.11 429.33"
/>
<path stroke="#691437" vector-effect="non-scaling-stroke" d="
  M 269.10 104.68
  Q 268.26 110.92 267.45 117.62
  C 267.23 119.46 266.56 120.91 265.11 122.10
  Q 263.77 123.21 265.49 123.44
  L 282.50 125.70
  A 1.10 1.09 18.0 0 0 283.61 125.14
  Q 284.95 122.72 285.08 120.11
  Q 285.17 118.35 283.93 119.60
  C 281.93 121.61 278.81 123.94 275.88 123.15
  A 1.75 1.73 -83.8 0 1 274.60 121.55
  C 274.36 116.39 274.78 105.93 278.40 101.59
  A 0.75 0.75 0.0 0 0 277.90 100.36
  L 268.48 99.31
  A 0.53 0.53 0.0 0 0 267.99 100.14
  Q 269.43 102.26 269.10 104.68"
/>
<path stroke="#691437" vector-effect="non-scaling-stroke" d="
  M 230.16 108.03
  Q 231.45 107.64 232.91 107.81
  A 1.82 1.82 0.0 0 0 234.92 106.33
  Q 234.98 106.00 234.95 105.66
  Q 234.75 103.82 232.90 103.73
  Q 230.26 103.60 228.36 106.04
  C 227.88 106.65 227.88 107.26 227.61 107.94
  Q 227.42 108.43 226.90 108.47
  Q 222.44 108.78 218.86 111.55
  C 215.36 114.24 214.77 118.39 218.73 121.29
  Q 219.62 121.94 220.68 122.19
  A 0.63 0.63 0.0 0 1 220.97 123.26
  Q 219.22 125.01 221.25 126.06
  A 2.63 2.59 56.7 0 0 222.65 126.36
  C 225.35 126.22 228.25 125.61 230.82 126.67
  Q 234.51 128.20 235.48 131.58
  C 237.11 137.21 226.30 137.09 225.05 131.76
  Q 224.81 130.76 224.55 129.78
  A 1.73 1.71 -7.1 0 0 222.88 128.49
  Q 218.67 128.51 217.14 131.59
  Q 216.93 132.00 217.07 132.43
  C 218.54 136.98 225.10 138.51 229.26 138.05
  C 234.62 137.45 239.89 132.74 239.29 126.90
  C 238.85 122.65 234.39 120.98 230.67 122.40
  Q 227.30 123.69 223.72 124.46
  A 0.78 0.77 81.4 0 1 222.79 123.77
  L 222.76 123.48
  Q 222.69 122.69 223.49 122.72
  C 228.80 122.94 238.56 119.84 236.19 112.70
  C 235.33 110.12 232.58 109.26 230.20 108.79
  Q 228.66 108.48 230.16 108.03"
/>
<path stroke="#691437" vector-effect="non-scaling-stroke" d="
  M 246.89 117.21
  Q 247.44 117.05 248.01 117.17
  C 252.31 118.06 258.52 112.70 254.38 108.55
  C 248.84 102.99 238.05 106.66 238.18 115.04
  C 238.23 118.25 239.89 121.17 242.76 122.52
  Q 249.89 125.87 255.69 119.73
  Q 256.28 119.11 256.14 118.26
  L 256.09 118.01
  A 0.56 0.56 0.0 0 0 255.13 117.72
  C 252.76 120.29 248.98 121.01 246.66 117.89
  Q 246.28 117.39 246.89 117.21"
/>
<path stroke="#691437" vector-effect="non-scaling-stroke" d="
  M 293.78 122.26
  Q 294.11 121.38 294.93 121.85
  Q 297.68 123.42 300.76 122.54
  C 304.35 121.50 306.16 117.60 303.39 114.58
  Q 298.98 109.76 293.03 111.51
  Q 287.01 113.29 286.67 119.01
  C 286.20 127.06 295.23 131.13 301.78 127.10
  Q 302.59 126.60 302.78 125.67
  Q 302.92 124.99 302.27 125.25
  Q 297.92 126.97 294.97 124.56
  Q 294.10 123.85 293.77 122.72
  Q 293.70 122.49 293.78 122.26"
/>
<path stroke="#691437" vector-effect="non-scaling-stroke" d="
  M 206.00 122.30
  Q 201.41 120.93 198.92 124.28
  Q 196.46 127.61 199.06 130.84
  C 202.01 134.51 205.88 133.61 208.63 129.94
  Q 208.99 129.46 209.55 129.67
  Q 213.28 131.03 217.48 128.26
  A 0.49 0.49 0.0 0 0 217.40 127.40
  C 212.62 125.42 214.33 118.49 209.20 115.89
  Q 203.26 112.88 197.99 117.68
  Q 196.01 119.49 196.91 121.98
  Q 197.08 122.45 197.58 122.49
  Q 200.60 122.70 202.30 120.52
  Q 202.67 120.05 202.41 119.50
  L 201.63 117.80
  Q 201.35 117.21 201.95 116.96
  C 203.82 116.19 205.96 120.32 206.48 121.80
  A 0.39 0.39 0.0 0 1 206.00 122.30"
/>
<path stroke="#691437" vector-effect="non-scaling-stroke" d="
  M 316.34 119.93
  Q 317.05 122.09 315.68 125.29
  Q 315.40 125.96 315.03 125.33
  C 313.34 122.44 309.34 121.32 306.69 123.03
  C 300.97 126.73 305.26 134.79 311.74 133.12
  Q 312.68 132.88 312.92 133.82
  C 313.44 135.87 316.92 137.05 318.69 137.73
  C 322.21 139.08 325.34 141.63 328.77 143.34
  Q 329.44 143.67 329.45 142.92
  Q 329.50 138.47 332.49 134.22
  C 333.64 132.59 335.65 131.95 337.56 132.07
  A 0.59 0.58 -67.6 0 1 337.96 133.04
  L 337.10 134.04
  A 1.78 1.78 0.0 0 0 337.50 136.70
  Q 341.07 138.96 343.35 136.34
  Q 344.68 134.81 343.80 132.98
  Q 341.53 128.25 335.67 130.79
  Q 334.79 131.17 335.24 130.32
  Q 335.70 129.45 336.50 128.83
  A 0.85 0.83 -23.8 0 0 336.82 128.03
  Q 336.78 127.79 336.58 127.66
  Q 336.24 127.45 335.85 127.49
  Q 331.61 127.97 327.75 126.43
  Q 326.99 126.13 327.14 126.93
  C 327.33 128.02 327.73 129.18 327.25 130.26
  C 326.04 133.04 324.16 136.79 320.86 137.50
  A 0.59 0.59 0.0 0 1 320.22 137.21
  Q 319.10 135.21 319.81 133.35
  C 321.65 128.54 324.16 124.05 319.74 119.59
  Q 316.23 116.04 311.10 116.99
  Q 309.23 117.34 308.76 119.18
  A 1.32 1.30 -66.1 0 0 309.29 120.59
  Q 311.21 121.89 313.43 121.99
  Q 314.08 122.02 314.29 121.40
  L 314.80 119.91
  Q 315.59 117.62 316.34 119.93"
/>
<path stroke="#691437" vector-effect="non-scaling-stroke" d="
  M 191.90 136.89
  C 194.83 137.72 197.08 136.21 199.51 134.79
  A 0.53 0.53 0.0 0 0 199.52 133.88
  C 195.42 131.33 192.53 126.24 191.23 121.91
  Q 190.12 118.22 188.54 121.74
  Q 187.08 124.99 184.18 126.85
  A 0.51 0.51 0.0 0 0 184.27 127.76
  Q 188.77 129.51 189.76 135.51
  Q 189.87 136.24 189.57 136.88
  A 1.94 1.94 0.0 0 1 186.60 137.55
  C 183.36 134.94 181.41 130.74 180.11 126.79
  Q 179.33 124.41 178.31 126.69
  Q 176.67 130.37 173.61 132.47
  A 0.63 0.63 0.0 0 0 173.81 133.60
  C 177.66 134.55 178.04 138.98 181.27 141.00
  C 184.57 143.07 189.39 141.44 190.86 137.42
  Q 191.13 136.67 191.90 136.89"
/>
<path stroke="#691437" vector-effect="non-scaling-stroke" d="
  M 165.97 135.27
  Q 164.03 135.50 165.70 134.49
  L 167.90 133.16
  Q 169.13 132.42 168.74 131.04
  Q 168.60 130.57 168.27 130.24
  Q 166.91 128.94 165.32 129.93
  C 163.78 130.90 162.54 132.98 162.77 134.91
  Q 162.84 135.49 162.78 136.06
  Q 162.74 136.49 162.37 136.71
  Q 157.45 139.61 156.08 144.33
  C 154.62 149.34 158.19 152.08 162.86 151.70
  Q 163.78 151.62 163.58 152.53
  Q 163.10 154.71 164.87 155.21
  Q 165.41 155.36 165.88 155.03
  C 169.90 152.18 174.93 149.48 179.47 152.87
  C 181.87 154.67 181.35 158.20 178.60 159.37
  Q 172.83 161.82 169.51 156.75
  A 1.17 1.17 0.0 0 0 168.24 156.26
  C 165.81 156.89 163.26 159.36 163.93 162.10
  A 1.48 1.46 10.9 0 0 164.52 162.96
  C 169.03 166.06 175.46 164.22 179.26 160.84
  Q 183.44 157.11 182.70 150.87
  C 182.10 145.76 176.64 143.52 172.60 147.03
  Q 170.17 149.13 167.82 151.62
  Q 166.98 152.50 165.84 152.70
  Q 165.37 152.79 165.22 152.33
  L 165.14 152.09
  A 0.88 0.88 0.0 0 1 165.63 151.01
  C 169.29 149.46 172.39 146.79 173.90 143.12
  C 175.90 138.21 172.55 134.36 167.32 135.09
  Q 166.65 135.18 165.97 135.27"
/>
<path stroke="#691437" vector-effect="non-scaling-stroke" d="
  M 374.40 149.17
  Q 371.06 148.18 369.28 150.10
  A 2.23 2.20 53.9 0 0 368.91 152.55
  C 370.54 156.00 376.97 155.86 376.36 151.20"
/>
<path stroke="#0f375c" vector-effect="non-scaling-stroke" d="
  M 376.36 151.20
  Q 416.55 194.38 419.51 252.51
  Q 420.02 262.59 419.10 272.50
  C 411.79 351.33 346.91 411.31 267.59 412.14
  C 238.92 412.43 210.53 404.38 186.20 389.61
  C 163.77 376.00 145.81 357.40 131.94 334.72
  Q 130.84 332.92 131.58 334.90
  Q 132.11 336.33 132.86 337.78
  C 152.31 375.37 187.17 402.94 227.60 414.36
  C 278.56 428.75 333.60 416.12 373.45 381.28
  C 408.74 350.44 428.99 304.62 427.16 257.81
  Q 425.09 204.86 391.58 163.99
  Q 376.11 145.12 355.28 132.42
  Q 355.20 132.38 355.14 132.46
  L 355.14 132.46
  Q 355.05 132.60 355.18 132.69
  Q 365.38 140.24 374.40 149.17"
/>
<path stroke="#784b93" vector-effect="non-scaling-stroke" d="
  M 376.36 151.20
  L 374.40 149.17"
/>
<path stroke="#0f375c" vector-effect="non-scaling-stroke" d="
  M 276.4215 135.7000
  A 0.82 0.82 0.0 0 0 275.6001 134.8814
  L 265.7401 134.8986
  A 0.82 0.82 0.0 0 0 264.9215 135.7200
  L 264.9385 145.4400
  A 0.82 0.82 0.0 0 0 265.7599 146.2586
  L 275.6199 146.2414
  A 0.82 0.82 0.0 0 0 276.4385 145.4200
  L 276.4215 135.7000"
/>
<path stroke="#691437" vector-effect="non-scaling-stroke" d="
  M 354.37 140.89
  Q 354.57 140.13 353.86 139.58
  A 1.19 1.17 64.8 0 0 353.21 139.34
  Q 349.05 139.18 345.94 137.25
  A 0.47 0.46 -75.7 0 0 345.23 137.68
  Q 345.43 141.12 342.64 143.82
  C 341.27 145.15 340.42 146.86 338.21 146.89
  Q 335.60 146.93 337.61 148.60
  L 344.19 154.06
  A 0.64 0.64 0.0 0 0 345.24 153.55
  C 345.15 149.83 350.51 142.48 354.41 143.04
  A 1.56 1.56 0.0 0 1 355.69 145.01
  Q 353.45 152.83 347.01 155.28
  A 0.53 0.53 0.0 0 0 346.86 156.18
  Q 349.27 158.20 351.73 160.20
  Q 354.12 162.15 356.07 164.46
  Q 358.67 167.52 361.64 170.19
  A 0.35 0.35 0.0 0 0 362.22 169.98
  C 362.99 165.31 368.99 160.95 372.96 158.16
  Q 374.55 157.04 372.62 156.79
  Q 368.40 156.24 365.39 153.88
  Q 364.15 152.90 364.29 154.47
  C 364.54 157.31 361.10 159.92 359.15 161.48
  Q 357.67 162.66 355.62 162.47
  Q 355.13 162.42 355.03 161.93
  Q 354.49 159.17 355.77 157.76
  C 360.23 152.81 363.65 146.13 356.33 141.46
  C 355.93 141.20 355.33 141.17 354.88 141.35
  Q 354.16 141.64 354.37 140.89"
/>
<path stroke="#691437" vector-effect="non-scaling-stroke" d="
  M 244.4789 146.7678
  A 0.68 0.68 0.0 0 0 243.7978 146.0890
  L 231.1778 146.1110
  A 0.68 0.68 0.0 0 0 230.4990 146.7922
  L 230.5211 159.4522
  A 0.68 0.68 0.0 0 0 231.2022 160.1310
  L 243.8222 160.1090
  A 0.68 0.68 0.0 0 0 244.5010 159.4278
  L 244.4789 146.7678"
/>
<path stroke="#691437" vector-effect="non-scaling-stroke" d="
  M 141.10 156.48
  Q 140.88 156.33 140.63 156.32
  A 0.71 0.71 0.0 0 0 139.88 156.96
  Q 139.46 161.63 136.99 164.73
  A 0.53 0.53 0.0 0 0 137.54 165.58
  C 140.44 164.85 143.52 168.49 145.39 170.68
  Q 145.78 171.14 145.88 171.73
  L 146.34 174.48
  A 0.42 0.42 0.0 0 1 146.00 174.96
  Q 143.58 175.36 141.84 174.24
  C 137.50 171.46 134.08 168.24 128.68 171.59
  C 126.00 173.26 122.64 178.26 124.92 181.49
  A 1.83 1.82 -42.7 0 0 127.82 181.60
  Q 129.13 180.02 129.58 178.16
  A 1.17 1.17 0.0 0 0 128.43 176.71
  Q 127.23 176.73 127.05 175.63
  A 0.77 0.77 0.0 0 1 127.81 174.74
  Q 130.91 174.74 133.47 176.62
  A 0.49 0.48 -32.2 0 1 133.27 177.49
  C 129.24 178.24 127.48 183.86 130.18 186.80
  C 134.16 191.12 140.86 187.58 140.08 181.86
  A 0.66 0.66 0.0 0 1 140.72 181.11
  C 143.44 181.06 145.03 178.01 146.20 175.97
  Q 147.04 174.50 148.17 173.37
  Q 150.99 170.53 153.80 167.59
  A 0.38 0.38 0.0 0 0 153.61 166.96
  C 150.09 166.08 143.50 161.80 143.31 157.17
  A 1.57 1.57 0.0 0 1 145.35 155.61
  Q 152.99 158.03 155.07 165.05
  A 0.57 0.57 0.0 0 0 156.03 165.28
  L 162.28 158.80
  Q 163.35 157.70 161.81 157.69
  C 159.92 157.67 158.33 156.73 157.08 155.40
  C 153.14 151.21 147.81 148.78 142.89 153.53
  Q 141.80 154.59 141.82 156.10
  Q 141.84 157.00 141.10 156.48"
/>
<path stroke="#0f375c" vector-effect="non-scaling-stroke" d="
  M 208.25 158.49
  A 0.75 0.75 0.0 0 0 207.50 157.74
  L 192.18 157.74
  A 0.75 0.75 0.0 0 0 191.43 158.49
  L 191.43 173.75
  A 0.75 0.75 0.0 0 0 192.18 174.50
  L 207.50 174.50
  A 0.75 0.75 0.0 0 0 208.25 173.75
  L 208.25 158.49"
/>
<path stroke="#691437" vector-effect="non-scaling-stroke" d="
  M 381.35 168.11
  Q 381.49 168.01 381.57 167.83
  Q 381.78 167.34 381.29 167.13
  C 378.83 166.04 376.02 165.19 374.21 163.09
  Q 373.10 161.81 372.94 163.49
  C 372.65 166.48 369.47 168.16 367.25 169.72
  C 365.94 170.64 364.44 170.53 362.93 170.48
  A 0.42 0.42 0.0 0 0 362.58 171.14
  L 368.24 178.80
  A 0.36 0.35 39.7 0 0 368.84 178.75
  C 370.57 175.28 375.94 169.32 380.54 170.26
  A 1.50 1.50 0.0 0 1 381.57 172.43
  Q 377.53 180.09 370.32 180.50
  A 0.48 0.47 69.9 0 0 369.97 181.26
  L 375.52 188.70
  Q 376.54 190.06 376.83 188.39
  C 377.04 187.20 377.29 185.98 378.33 185.23
  C 382.12 182.50 385.96 179.75 385.61 174.59
  Q 385.32 170.38 381.44 168.87
  Q 380.67 168.58 381.35 168.11"
/>
<path stroke="#0f375c" vector-effect="non-scaling-stroke" d="
  M 251.1756 175.2199
  A 0.74 0.74 0.0 0 0 250.4395 174.4760
  L 240.5197 174.4241
  A 0.74 0.74 0.0 0 0 239.7758 175.1602
  L 239.7244 184.9801
  A 0.74 0.74 0.0 0 0 240.4605 185.7240
  L 250.3803 185.7759
  A 0.74 0.74 0.0 0 0 251.1242 185.0398
  L 251.1756 175.2199"
/>
<path stroke="#0f375c" vector-effect="non-scaling-stroke" d="
  M 296.18 177.74
  A 0.76 0.76 0.0 0 0 295.42 176.98
  L 280.08 176.98
  A 0.76 0.76 0.0 0 0 279.32 177.74
  L 279.32 192.98
  A 0.76 0.76 0.0 0 0 280.08 193.74
  L 295.42 193.74
  A 0.76 0.76 0.0 0 0 296.18 192.98
  L 296.18 177.74"
/>
<path stroke="#691437" vector-effect="non-scaling-stroke" d="
  M 398.22 195.82
  Q 398.47 194.23 399.00 195.74
  L 400.13 198.93
  Q 400.74 200.66 402.26 199.65
  L 402.90 199.23
  A 2.07 2.07 0.0 0 0 403.66 196.70
  C 402.73 194.48 400.70 193.33 398.28 193.09
  Q 397.51 193.02 397.25 192.29
  C 395.26 186.91 387.25 179.56 383.05 187.93
  C 382.70 188.63 382.60 189.67 382.62 190.45
  Q 382.64 191.09 382.01 190.99
  L 380.55 190.75
  A 1.65 1.64 81.7 0 0 378.81 193.09
  C 380.97 197.57 382.52 202.56 378.70 206.62
  C 376.54 208.92 373.35 208.01 372.47 205.00
  Q 371.33 201.10 373.27 198.35
  C 373.94 197.40 375.22 196.95 376.18 196.34
  Q 377.51 195.50 377.03 194.00
  C 375.94 190.57 371.90 187.34 369.70 192.29
  C 366.43 199.67 370.27 209.04 378.74 210.17
  C 385.73 211.11 388.89 204.71 384.67 199.45
  Q 382.52 196.78 380.95 193.74
  A 0.67 0.67 0.0 0 1 381.38 192.79
  L 381.65 192.72
  Q 382.43 192.51 382.64 193.29
  Q 384.07 198.54 387.68 201.75
  C 389.54 203.40 392.62 204.81 395.01 203.36
  Q 398.32 201.35 398.12 197.67
  Q 398.07 196.73 398.22 195.82"
/>
<path stroke="#691437" vector-effect="non-scaling-stroke" d="
  M 219.73 188.48
  A 0.65 0.65 0.0 0 0 219.08 187.83
  L 208.68 187.83
  A 0.65 0.65 0.0 0 0 208.03 188.48
  L 208.03 198.68
  A 0.65 0.65 0.0 0 0 208.68 199.33
  L 219.08 199.33
  A 0.65 0.65 0.0 0 0 219.73 198.68
  L 219.73 188.48"
/>
<path stroke="#691437" vector-effect="non-scaling-stroke" d="
  M 129.96 198.28
  A 1.46 1.45 24.3 0 1 128.36 198.88
  C 122.90 197.38 113.50 193.58 110.56 188.38
  A 0.55 0.55 0.0 0 0 109.59 188.40
  L 104.95 197.24
  A 0.48 0.47 11.1 0 0 105.42 197.93
  C 107.07 197.74 108.78 197.43 110.32 198.24
  Q 116.74 201.61 122.90 204.83
  C 123.95 205.38 124.70 206.21 125.14 207.32
  Q 126.00 209.45 127.07 207.42
  L 134.58 193.17
  A 1.69 1.68 -58.4 0 0 134.07 191.02
  L 130.22 188.28
  Q 128.71 187.21 129.30 188.97
  C 130.34 192.05 131.90 195.31 129.96 198.28"
/>
<path stroke="#691437" vector-effect="non-scaling-stroke" d="
  M 274.4694 194.5878
  A 0.85 0.85 0.0 0 0 273.6179 193.7393
  L 261.3579 193.7607
  A 0.85 0.85 0.0 0 0 260.5094 194.6122
  L 260.5306 206.7322
  A 0.85 0.85 0.0 0 0 261.3821 207.5807
  L 273.6421 207.5593
  A 0.85 0.85 0.0 0 0 274.4906 206.7078
  L 274.4694 194.5878"
/>
<path stroke="#0f375c" vector-effect="non-scaling-stroke" d="
  M 335.4864 204.8053
  A 0.56 0.56 0.0 0 0 334.9254 204.2463
  L 319.2254 204.2737
  A 0.56 0.56 0.0 0 0 318.6664 204.8347
  L 318.6936 220.4547
  A 0.56 0.56 0.0 0 0 319.2546 221.0137
  L 334.9546 220.9863
  A 0.56 0.56 0.0 0 0 335.5136 220.4253
  L 335.4864 204.8053"
/>
<path stroke="#0f375c" vector-effect="non-scaling-stroke" d="
  M 301.9674 207.6202
  A 0.66 0.66 0.0 0 0 301.3097 206.9579
  L 291.0498 206.9221
  A 0.66 0.66 0.0 0 0 290.3875 207.5798
  L 290.3526 217.5598
  A 0.66 0.66 0.0 0 0 291.0103 218.2221
  L 301.2702 218.2579
  A 0.66 0.66 0.0 0 0 301.9325 217.6002
  L 301.9674 207.6202"
/>
<path stroke="#0f375c" vector-effect="non-scaling-stroke" d="
  M 227.7358 208.1231
  A 0.78 0.78 0.0 0 0 226.9530 207.3458
  L 218.8131 207.3742
  A 0.78 0.78 0.0 0 0 218.0358 208.1570
  L 218.0642 216.2969
  A 0.78 0.78 0.0 0 0 218.8470 217.0742
  L 226.9869 217.0458
  A 0.78 0.78 0.0 0 0 227.7642 216.2630
  L 227.7358 208.1231"
/>
<path stroke="#0f375c" vector-effect="non-scaling-stroke" d="
  M 250.1493 208.2079
  A 0.73 0.73 0.0 0 0 249.4180 207.4792
  L 237.0380 207.5008
  A 0.73 0.73 0.0 0 0 236.3093 208.2321
  L 236.3307 220.5321
  A 0.73 0.73 0.0 0 0 237.0620 221.2608
  L 249.4420 221.2392
  A 0.73 0.73 0.0 0 0 250.1707 220.5079
  L 250.1493 208.2079"
/>
<path stroke="#0f375c" vector-effect="non-scaling-stroke" d="
  M 199.83 210.47
  A 0.49 0.49 0.0 0 0 199.34 209.98
  L 186.46 209.98
  A 0.49 0.49 0.0 0 0 185.97 210.47
  L 185.97 223.25
  A 0.49 0.49 0.0 0 0 186.46 223.74
  L 199.34 223.74
  A 0.49 0.49 0.0 0 0 199.83 223.25
  L 199.83 210.47"
/>
<path stroke="#0f375c" vector-effect="non-scaling-stroke" d="
  M 270.7280 220.1201
  A 0.62 0.62 0.0 0 0 270.1102 219.4980
  L 259.8302 219.4621
  A 0.62 0.62 0.0 0 0 259.2081 220.0799
  L 259.1720 230.4199
  A 0.62 0.62 0.0 0 0 259.7898 231.0420
  L 270.0698 231.0779
  A 0.62 0.62 0.0 0 0 270.6919 230.4601
  L 270.7280 220.1201"
/>
<path stroke="#691437" vector-effect="non-scaling-stroke" d="
  M 229.95 228.10
  A 0.61 0.61 0.0 0 0 229.34 227.49
  L 216.48 227.49
  A 0.61 0.61 0.0 0 0 215.87 228.10
  L 215.87 240.66
  A 0.61 0.61 0.0 0 0 216.48 241.27
  L 229.34 241.27
  A 0.61 0.61 0.0 0 0 229.95 240.66
  L 229.95 228.10"
/>
<path stroke="#691437" vector-effect="non-scaling-stroke" d="
  M 250.21 364.32
  Q 258.34 359.07 263.31 356.34
  Q 275.67 349.56 290.38 346.47
  Q 309.03 342.55 327.63 344.88
  Q 328.25 344.96 327.87 344.47
  Q 321.57 336.36 314.00 332.54
  Q 300.89 325.93 285.94 325.73
  Q 283.74 325.70 282.06 324.57
  A 1.02 1.01 53.0 0 1 282.31 322.76
  C 288.08 320.89 294.56 321.66 300.63 322.22
  Q 305.34 322.66 301.04 320.69
  Q 294.39 317.65 286.77 314.00
  Q 282.17 311.80 278.32 308.72
  A 1.04 1.04 0.0 0 1 278.81 306.88
  Q 280.82 306.57 282.87 307.28
  Q 291.28 310.21 299.89 313.92
  Q 301.85 314.76 304.01 315.28
  Q 306.30 315.83 304.77 314.03
  Q 302.42 311.27 299.53 309.05
  Q 292.51 303.64 286.03 298.08
  Q 284.53 296.79 283.47 295.15
  Q 281.81 292.57 284.71 293.55
  Q 288.66 294.87 292.31 297.38
  Q 300.69 303.12 308.82 308.79
  Q 311.36 310.56 309.60 308.01
  Q 309.02 307.18 307.28 305.41
  Q 302.81 300.86 297.91 295.84
  Q 295.40 293.27 293.75 290.06
  A 1.09 1.09 0.0 0 1 295.01 288.51
  Q 297.65 289.26 299.79 291.21
  Q 306.72 297.53 313.33 304.30
  C 315.16 306.17 320.07 310.38 322.27 306.70
  C 324.31 303.30 323.59 298.76 322.74 295.02
  C 322.17 292.49 322.55 289.88 324.26 287.87
  A 1.63 1.62 39.9 0 1 326.52 287.67
  Q 327.91 288.79 328.40 290.57
  Q 331.30 301.10 332.75 313.39
  C 334.03 324.20 338.88 331.37 346.45 339.37
  A 0.26 0.26 0.0 0 0 346.90 339.24
  L 367.39 236.83
  Q 367.72 235.17 366.03 235.06
  C 355.85 234.42 345.54 234.16 335.28 235.11
  Q 295.52 238.79 259.24 257.72
  Q 253.55 260.68 250.11 263.02"
/>
<path stroke="#0f375c" vector-effect="non-scaling-stroke" d="
  M 250.11 263.02
  Q 209.59 238.99 162.97 235.05
  C 153.45 234.24 143.63 234.47 134.01 235.11
  Q 132.67 235.20 132.94 236.51
  L 153.39 338.97
  A 0.34 0.33 -28.8 0 0 153.96 339.13
  C 160.28 332.44 165.92 324.99 167.09 315.63
  Q 168.59 303.54 171.21 292.37
  C 171.63 290.56 173.73 285.13 176.30 288.20
  C 180.51 293.21 174.01 300.99 178.24 307.08
  Q 178.55 307.54 179.07 307.69
  Q 182.35 308.69 185.20 305.81
  Q 192.13 298.78 199.79 291.60
  Q 201.92 289.60 204.20 288.87
  Q 207.91 287.67 205.98 291.07
  Q 204.54 293.61 202.23 295.95
  Q 196.01 302.29 189.78 308.76
  Q 189.74 308.81 189.77 308.85
  L 189.98 309.10
  Q 190.26 309.43 190.61 309.19
  Q 198.98 303.38 207.27 297.76
  Q 211.56 294.85 216.37 293.22
  A 0.85 0.85 0.0 0 1 217.45 293.76
  Q 217.64 294.31 217.22 294.83
  Q 215.17 297.39 212.89 299.25
  Q 206.43 304.54 199.36 310.09
  Q 196.78 312.11 195.07 314.59
  Q 194.32 315.68 195.60 315.37
  Q 199.11 314.52 202.52 312.99
  C 206.79 311.08 218.79 305.65 221.88 307.08
  A 0.80 0.80 0.0 0 1 222.14 308.35
  Q 220.22 310.48 217.40 311.90
  Q 208.00 316.65 199.70 320.48
  Q 194.32 322.97 200.19 322.14
  C 205.61 321.38 213.16 320.68 218.28 322.96
  A 0.85 0.85 0.0 0 1 218.40 324.45
  C 215.94 326.09 211.16 326.05 208.19 326.20
  C 200.24 326.58 191.80 329.64 184.90 333.34
  C 179.99 335.98 175.93 340.12 172.45 344.30
  Q 171.95 344.90 172.72 344.80
  C 199.48 341.54 226.58 347.69 248.57 363.67
  Q 249.28 364.18 250.21 364.32"
/>
<path stroke="#784b93" vector-effect="non-scaling-stroke" d="
  M 250.11 263.02
  L 250.21 364.32"
/>
<path stroke="#0f375c" vector-effect="non-scaling-stroke" d="
  M 254.9627 235.8117
  A 0.60 0.60 0.0 0 0 254.3617 235.2127
  L 246.0217 235.2273
  A 0.60 0.60 0.0 0 0 245.4227 235.8283
  L 245.4373 244.1683
  A 0.60 0.60 0.0 0 0 246.0383 244.7673
  L 254.3783 244.7527
  A 0.60 0.60 0.0 0 0 254.9773 244.1517
  L 254.9627 235.8117"
/>
<path stroke="#691437" vector-effect="non-scaling-stroke" d="
  M 226.49 371.42
  A 0.38 0.37 -10.4 0 1 227.03 371.79
  Q 226.40 378.98 225.38 386.19
  Q 224.98 388.98 222.90 390.40
  Q 221.09 391.63 223.26 391.91
  L 233.74 393.28
  A 0.30 0.30 0.0 0 0 234.06 392.91
  Q 232.22 386.03 233.74 378.76
  Q 234.07 377.17 236.89 375.98
  A 1.18 1.18 0.0 0 1 238.30 376.38
  Q 239.33 377.79 239.63 379.56
  Q 241.04 387.87 236.71 392.92
  A 0.49 0.49 0.0 0 0 237.02 393.73
  L 247.74 395.17
  Q 249.43 395.40 248.32 394.10
  C 247.24 392.83 246.59 391.22 246.82 389.54
  C 247.48 384.71 248.14 379.76 244.36 376.19
  C 242.25 374.20 238.17 372.76 235.50 374.79
  Q 233.71 376.15 234.30 373.98
  L 236.28 366.73
  A 0.63 0.62 -2.3 0 0 235.46 365.98
  L 228.11 368.65
  A 0.67 0.67 0.0 0 1 227.26 368.28
  Q 224.40 361.29 216.30 359.61
  Q 208.88 358.08 206.47 364.82
  C 205.52 367.46 206.80 370.55 208.25 372.75
  C 209.87 375.22 214.09 380.15 213.74 383.09
  A 2.05 2.04 7.3 0 1 211.42 384.88
  C 207.33 384.30 205.39 378.14 204.72 374.62
  Q 203.90 370.28 202.24 374.38
  Q 200.83 377.87 199.30 381.32
  A 0.50 0.50 0.0 0 0 199.75 382.02
  C 201.53 382.04 203.96 381.53 205.32 383.04
  Q 208.72 386.80 213.80 387.22
  C 221.28 387.85 224.80 382.23 220.73 375.44
  Q 218.18 371.17 215.96 367.35
  Q 214.62 365.05 215.89 362.72
  C 216.97 360.72 220.57 361.91 219.62 364.50
  C 219.11 365.90 218.37 367.64 219.17 369.05
  Q 221.79 373.65 226.49 371.42"
/>
<path stroke="#691437" vector-effect="non-scaling-stroke" d="
  M 286.73 387.24
  Q 291.98 386.67 295.01 382.12
  C 298.04 377.54 296.65 371.37 291.87 368.67
  C 287.50 366.21 281.89 366.88 278.37 370.69
  C 276.41 372.80 274.81 374.95 272.13 376.24
  A 0.82 0.82 0.0 0 0 272.22 377.75
  Q 274.55 378.55 275.45 380.80
  Q 278.46 388.25 281.26 395.38
  C 281.89 397.00 281.39 398.48 280.81 400.00
  Q 280.35 401.23 281.56 400.74
  L 291.73 396.62
  A 0.64 0.64 0.0 0 0 291.87 395.50
  Q 288.30 392.89 286.31 387.94
  Q 286.06 387.32 286.73 387.24"
/>
<path stroke="#691437" vector-effect="non-scaling-stroke" d="
  M 272.1464 382.2855
  A 10.74 10.01 -8.7 0 0 260.0159 374.0152
  A 10.74 10.01 -8.7 0 0 250.9136 385.5345
  A 10.74 10.01 -8.7 0 0 263.0441 393.8048
  A 10.74 10.01 -8.7 0 0 272.1464 382.2855"
/>
<path stroke="#691437" vector-effect="non-scaling-stroke" d="
  M 227.3604 121.0260
  A 5.56 2.64 78.9 0 0 228.8806 115.0617
  A 5.56 2.64 78.9 0 0 225.2196 110.1140
  A 5.56 2.64 78.9 0 0 223.6994 116.0783
  A 5.56 2.64 78.9 0 0 227.3604 121.0260"
/>
<path stroke="#691437" vector-effect="non-scaling-stroke" d="
  M 247.7622 115.7555
  A 4.08 2.12 87.3 0 0 249.6876 111.5801
  A 4.08 2.12 87.3 0 0 247.3778 107.6045
  A 4.08 2.12 87.3 0 0 245.4524 111.7799
  A 4.08 2.12 87.3 0 0 247.7622 115.7555"
/>
<path stroke="#691437" vector-effect="non-scaling-stroke" d="
  M 295.5883 120.7544
  A 4.04 2.22 107.9 0 0 298.9425 117.5923
  A 4.04 2.22 107.9 0 0 298.0717 113.0656
  A 4.04 2.22 107.9 0 0 294.7175 116.2277
  A 4.04 2.22 107.9 0 0 295.5883 120.7544"
/>
<path stroke="#691437" vector-effect="non-scaling-stroke" d="
  M 206.5287 129.5931
  A 2.98 2.29 69.6 0 0 207.6364 126.0018
  A 2.98 2.29 69.6 0 0 204.4513 124.0069
  A 2.98 2.29 69.6 0 0 203.3436 127.5982
  A 2.98 2.29 69.6 0 0 206.5287 129.5931"
/>
<path stroke="#691437" vector-effect="non-scaling-stroke" d="
  M 310.4840 131.1450
  A 2.88 2.32 112.8 0 0 313.7387 129.3890
  A 2.88 2.32 112.8 0 0 312.7160 125.8350
  A 2.88 2.32 112.8 0 0 309.4613 127.5910
  A 2.88 2.32 112.8 0 0 310.4840 131.1450"
/>
<path stroke="#691437" vector-effect="non-scaling-stroke" d="
  M 168.4932 147.7849
  A 5.55 2.66 52.7 0 0 167.2460 141.7581
  A 5.55 2.66 52.7 0 0 161.7668 138.9551
  A 5.55 2.66 52.7 0 0 163.0140 144.9819
  A 5.55 2.66 52.7 0 0 168.4932 147.7849"
/>
<path stroke="#691437" vector-effect="non-scaling-stroke" d="
  M 137.9910 183.0753
  A 2.91 2.24 37.1 0 0 137.0212 179.5334
  A 2.91 2.24 37.1 0 0 133.3490 179.5647
  A 2.91 2.24 37.1 0 0 134.3188 183.1066
  A 2.91 2.24 37.1 0 0 137.9910 183.0753"
/>
<path stroke="#691437" vector-effect="non-scaling-stroke" d="
  M 395.3828 191.4141
  A 5.66 2.69 -28.1 0 0 389.1230 191.7071
  A 5.66 2.69 -28.1 0 0 385.3972 196.7459
  A 5.66 2.69 -28.1 0 0 391.6570 196.4529
  A 5.66 2.69 -28.1 0 0 395.3828 191.4141"
/>
<path stroke="#691437" vector-effect="non-scaling-stroke" d="
  M 289.0028 385.0257
  A 8.32 3.03 68.4 0 0 288.7572 376.1746
  A 8.32 3.03 68.4 0 0 282.8772 369.5543
  A 8.32 3.03 68.4 0 0 283.1228 378.4054
  A 8.32 3.03 68.4 0 0 289.0028 385.0257"
/>
<path stroke="#691437" vector-effect="non-scaling-stroke" d="
  M 262.6170 392.2165
  A 8.37 3.00 82.4 0 0 264.4836 383.5232
  A 8.37 3.00 82.4 0 0 260.4030 375.6235
  A 8.37 3.00 82.4 0 0 258.5364 384.3168
  A 8.37 3.00 82.4 0 0 262.6170 392.2165"
/>
</g>
<path fill="#FFFFFF" d="
  M 0.00 0.00
  L 500.00 0.00
  L 500.00 500.00
  L 0.00 500.00
  L 0.00 0.00
  Z
  M 461.74 172.36
  L 461.75 172.36
  Q 461.91 172.29 461.85 172.13
  Q 441.29 118.94 397.69 82.44
  Q 369.86 59.13 334.53 45.98
  Q 293.02 30.51 249.00 32.54
  Q 223.73 33.71 201.86 40.01
  Q 192.17 42.81 182.80 46.15
  Q 167.17 51.73 150.68 61.20
  Q 116.40 80.91 91.31 111.18
  Q 57.80 151.61 46.64 203.85
  C 34.34 261.47 45.78 321.30 78.45 370.19
  C 104.60 409.32 143.49 439.78 188.88 455.02
  Q 241.56 472.71 294.50 463.71
  Q 342.99 455.46 383.40 427.49
  Q 383.48 427.42 383.43 427.33
  L 383.42 427.33
  Q 383.32 427.16 383.14 427.26
  Q 376.38 431.18 369.23 434.73
  Q 326.09 456.13 276.94 455.61
  Q 267.61 455.51 257.55 454.29
  Q 198.64 447.11 153.15 409.96
  C 128.18 389.56 108.32 362.13 96.33 332.98
  Q 70.17 269.35 88.41 201.91
  C 96.91 170.49 113.86 141.25 136.00 118.39
  C 178.21 74.78 236.42 52.30 297.02 57.25
  Q 323.26 59.40 347.08 68.02
  C 398.22 86.54 438.60 123.21 461.54 172.28
  Q 461.60 172.42 461.74 172.36
  Z
  M 249.62 74.78
  Q 238.99 76.29 228.60 79.31
  A 0.05 0.05 0.0 0 0 228.63 79.40
  Q 245.47 76.84 263.38 76.79
  C 341.64 76.61 413.07 126.07 439.15 200.44
  C 469.74 287.68 432.31 381.61 352.56 426.64
  Q 352.45 426.70 352.51 426.81
  L 352.51 426.81
  Q 352.57 426.93 352.68 426.87
  C 377.62 415.41 399.73 398.45 416.90 377.13
  Q 456.10 328.47 458.65 266.05
  Q 459.05 256.37 458.21 246.26
  Q 453.48 189.16 419.11 144.71
  C 387.92 104.38 339.70 78.19 288.92 73.99
  C 279.89 73.25 270.23 72.67 261.09 73.55
  Q 255.99 74.04 250.77 74.63
  Q 250.20 74.70 249.62 74.78
  Z
  M 293.11 429.33
  Q 291.61 429.61 293.13 429.71
  Q 294.91 429.82 296.67 429.61
  C 367.45 420.89 424.34 366.88 439.60 297.57
  C 449.10 254.42 441.04 208.46 418.18 171.39
  C 391.84 128.66 348.71 99.99 298.85 92.58
  C 295.88 92.14 292.93 92.19 289.99 91.62
  Q 289.88 91.60 289.98 91.65
  C 292.35 92.83 294.78 92.81 297.20 93.35
  Q 353.73 106.07 391.64 148.57
  C 418.20 178.34 432.76 216.47 434.12 256.26
  C 435.24 289.37 426.13 322.33 408.76 350.31
  C 382.96 391.85 341.21 420.18 293.11 429.33
  Z
  M 269.10 104.68
  Q 268.26 110.92 267.45 117.62
  C 267.23 119.46 266.56 120.91 265.11 122.10
  Q 263.77 123.21 265.49 123.44
  L 282.50 125.70
  A 1.10 1.09 18.0 0 0 283.61 125.14
  Q 284.95 122.72 285.08 120.11
  Q 285.17 118.35 283.93 119.60
  C 281.93 121.61 278.81 123.94 275.88 123.15
  A 1.75 1.73 -83.8 0 1 274.60 121.55
  C 274.36 116.39 274.78 105.93 278.40 101.59
  A 0.75 0.75 0.0 0 0 277.90 100.36
  L 268.48 99.31
  A 0.53 0.53 0.0 0 0 267.99 100.14
  Q 269.43 102.26 269.10 104.68
  Z
  M 230.16 108.03
  Q 231.45 107.64 232.91 107.81
  A 1.82 1.82 0.0 0 0 234.92 106.33
  Q 234.98 106.00 234.95 105.66
  Q 234.75 103.82 232.90 103.73
  Q 230.26 103.60 228.36 106.04
  C 227.88 106.65 227.88 107.26 227.61 107.94
  Q 227.42 108.43 226.90 108.47
  Q 222.44 108.78 218.86 111.55
  C 215.36 114.24 214.77 118.39 218.73 121.29
  Q 219.62 121.94 220.68 122.19
  A 0.63 0.63 0.0 0 1 220.97 123.26
  Q 219.22 125.01 221.25 126.06
  A 2.63 2.59 56.7 0 0 222.65 126.36
  C 225.35 126.22 228.25 125.61 230.82 126.67
  Q 234.51 128.20 235.48 131.58
  C 237.11 137.21 226.30 137.09 225.05 131.76
  Q 224.81 130.76 224.55 129.78
  A 1.73 1.71 -7.1 0 0 222.88 128.49
  Q 218.67 128.51 217.14 131.59
  Q 216.93 132.00 217.07 132.43
  C 218.54 136.98 225.10 138.51 229.26 138.05
  C 234.62 137.45 239.89 132.74 239.29 126.90
  C 238.85 122.65 234.39 120.98 230.67 122.40
  Q 227.30 123.69 223.72 124.46
  A 0.78 0.77 81.4 0 1 222.79 123.77
  L 222.76 123.48
  Q 222.69 122.69 223.49 122.72
  C 228.80 122.94 238.56 119.84 236.19 112.70
  C 235.33 110.12 232.58 109.26 230.20 108.79
  Q 228.66 108.48 230.16 108.03
  Z
  M 246.89 117.21
  Q 247.44 117.05 248.01 117.17
  C 252.31 118.06 258.52 112.70 254.38 108.55
  C 248.84 102.99 238.05 106.66 238.18 115.04
  C 238.23 118.25 239.89 121.17 242.76 122.52
  Q 249.89 125.87 255.69 119.73
  Q 256.28 119.11 256.14 118.26
  L 256.09 118.01
  A 0.56 0.56 0.0 0 0 255.13 117.72
  C 252.76 120.29 248.98 121.01 246.66 117.89
  Q 246.28 117.39 246.89 117.21
  Z
  M 293.78 122.26
  Q 294.11 121.38 294.93 121.85
  Q 297.68 123.42 300.76 122.54
  C 304.35 121.50 306.16 117.60 303.39 114.58
  Q 298.98 109.76 293.03 111.51
  Q 287.01 113.29 286.67 119.01
  C 286.20 127.06 295.23 131.13 301.78 127.10
  Q 302.59 126.60 302.78 125.67
  Q 302.92 124.99 302.27 125.25
  Q 297.92 126.97 294.97 124.56
  Q 294.10 123.85 293.77 122.72
  Q 293.70 122.49 293.78 122.26
  Z
  M 206.00 122.30
  Q 201.41 120.93 198.92 124.28
  Q 196.46 127.61 199.06 130.84
  C 202.01 134.51 205.88 133.61 208.63 129.94
  Q 208.99 129.46 209.55 129.67
  Q 213.28 131.03 217.48 128.26
  A 0.49 0.49 0.0 0 0 217.40 127.40
  C 212.62 125.42 214.33 118.49 209.20 115.89
  Q 203.26 112.88 197.99 117.68
  Q 196.01 119.49 196.91 121.98
  Q 197.08 122.45 197.58 122.49
  Q 200.60 122.70 202.30 120.52
  Q 202.67 120.05 202.41 119.50
  L 201.63 117.80
  Q 201.35 117.21 201.95 116.96
  C 203.82 116.19 205.96 120.32 206.48 121.80
  A 0.39 0.39 0.0 0 1 206.00 122.30
  Z
  M 316.34 119.93
  Q 317.05 122.09 315.68 125.29
  Q 315.40 125.96 315.03 125.33
  C 313.34 122.44 309.34 121.32 306.69 123.03
  C 300.97 126.73 305.26 134.79 311.74 133.12
  Q 312.68 132.88 312.92 133.82
  C 313.44 135.87 316.92 137.05 318.69 137.73
  C 322.21 139.08 325.34 141.63 328.77 143.34
  Q 329.44 143.67 329.45 142.92
  Q 329.50 138.47 332.49 134.22
  C 333.64 132.59 335.65 131.95 337.56 132.07
  A 0.59 0.58 -67.6 0 1 337.96 133.04
  L 337.10 134.04
  A 1.78 1.78 0.0 0 0 337.50 136.70
  Q 341.07 138.96 343.35 136.34
  Q 344.68 134.81 343.80 132.98
  Q 341.53 128.25 335.67 130.79
  Q 334.79 131.17 335.24 130.32
  Q 335.70 129.45 336.50 128.83
  A 0.85 0.83 -23.8 0 0 336.82 128.03
  Q 336.78 127.79 336.58 127.66
  Q 336.24 127.45 335.85 127.49
  Q 331.61 127.97 327.75 126.43
  Q 326.99 126.13 327.14 126.93
  C 327.33 128.02 327.73 129.18 327.25 130.26
  C 326.04 133.04 324.16 136.79 320.86 137.50
  A 0.59 0.59 0.0 0 1 320.22 137.21
  Q 319.10 135.21 319.81 133.35
  C 321.65 128.54 324.16 124.05 319.74 119.59
  Q 316.23 116.04 311.10 116.99
  Q 309.23 117.34 308.76 119.18
  A 1.32 1.30 -66.1 0 0 309.29 120.59
  Q 311.21 121.89 313.43 121.99
  Q 314.08 122.02 314.29 121.40
  L 314.80 119.91
  Q 315.59 117.62 316.34 119.93
  Z
  M 191.90 136.89
  C 194.83 137.72 197.08 136.21 199.51 134.79
  A 0.53 0.53 0.0 0 0 199.52 133.88
  C 195.42 131.33 192.53 126.24 191.23 121.91
  Q 190.12 118.22 188.54 121.74
  Q 187.08 124.99 184.18 126.85
  A 0.51 0.51 0.0 0 0 184.27 127.76
  Q 188.77 129.51 189.76 135.51
  Q 189.87 136.24 189.57 136.88
  A 1.94 1.94 0.0 0 1 186.60 137.55
  C 183.36 134.94 181.41 130.74 180.11 126.79
  Q 179.33 124.41 178.31 126.69
  Q 176.67 130.37 173.61 132.47
  A 0.63 0.63 0.0 0 0 173.81 133.60
  C 177.66 134.55 178.04 138.98 181.27 141.00
  C 184.57 143.07 189.39 141.44 190.86 137.42
  Q 191.13 136.67 191.90 136.89
  Z
  M 165.97 135.27
  Q 164.03 135.50 165.70 134.49
  L 167.90 133.16
  Q 169.13 132.42 168.74 131.04
  Q 168.60 130.57 168.27 130.24
  Q 166.91 128.94 165.32 129.93
  C 163.78 130.90 162.54 132.98 162.77 134.91
  Q 162.84 135.49 162.78 136.06
  Q 162.74 136.49 162.37 136.71
  Q 157.45 139.61 156.08 144.33
  C 154.62 149.34 158.19 152.08 162.86 151.70
  Q 163.78 151.62 163.58 152.53
  Q 163.10 154.71 164.87 155.21
  Q 165.41 155.36 165.88 155.03
  C 169.90 152.18 174.93 149.48 179.47 152.87
  C 181.87 154.67 181.35 158.20 178.60 159.37
  Q 172.83 161.82 169.51 156.75
  A 1.17 1.17 0.0 0 0 168.24 156.26
  C 165.81 156.89 163.26 159.36 163.93 162.10
  A 1.48 1.46 10.9 0 0 164.52 162.96
  C 169.03 166.06 175.46 164.22 179.26 160.84
  Q 183.44 157.11 182.70 150.87
  C 182.10 145.76 176.64 143.52 172.60 147.03
  Q 170.17 149.13 167.82 151.62
  Q 166.98 152.50 165.84 152.70
  Q 165.37 152.79 165.22 152.33
  L 165.14 152.09
  A 0.88 0.88 0.0 0 1 165.63 151.01
  C 169.29 149.46 172.39 146.79 173.90 143.12
  C 175.90 138.21 172.55 134.36 167.32 135.09
  Q 166.65 135.18 165.97 135.27
  Z
  M 374.40 149.17
  Q 371.06 148.18 369.28 150.10
  A 2.23 2.20 53.9 0 0 368.91 152.55
  C 370.54 156.00 376.97 155.86 376.36 151.20
  Q 416.55 194.38 419.51 252.51
  Q 420.02 262.59 419.10 272.50
  C 411.79 351.33 346.91 411.31 267.59 412.14
  C 238.92 412.43 210.53 404.38 186.20 389.61
  C 163.77 376.00 145.81 357.40 131.94 334.72
  Q 130.84 332.92 131.58 334.90
  Q 132.11 336.33 132.86 337.78
  C 152.31 375.37 187.17 402.94 227.60 414.36
  C 278.56 428.75 333.60 416.12 373.45 381.28
  C 408.74 350.44 428.99 304.62 427.16 257.81
  Q 425.09 204.86 391.58 163.99
  Q 376.11 145.12 355.28 132.42
  Q 355.20 132.38 355.14 132.46
  L 355.14 132.46
  Q 355.05 132.60 355.18 132.69
  Q 365.38 140.24 374.40 149.17
  Z
  M 276.4215 135.7000
  A 0.82 0.82 0.0 0 0 275.6001 134.8814
  L 265.7401 134.8986
  A 0.82 0.82 0.0 0 0 264.9215 135.7200
  L 264.9385 145.4400
  A 0.82 0.82 0.0 0 0 265.7599 146.2586
  L 275.6199 146.2414
  A 0.82 0.82 0.0 0 0 276.4385 145.4200
  L 276.4215 135.7000
  Z
  M 354.37 140.89
  Q 354.57 140.13 353.86 139.58
  A 1.19 1.17 64.8 0 0 353.21 139.34
  Q 349.05 139.18 345.94 137.25
  A 0.47 0.46 -75.7 0 0 345.23 137.68
  Q 345.43 141.12 342.64 143.82
  C 341.27 145.15 340.42 146.86 338.21 146.89
  Q 335.60 146.93 337.61 148.60
  L 344.19 154.06
  A 0.64 0.64 0.0 0 0 345.24 153.55
  C 345.15 149.83 350.51 142.48 354.41 143.04
  A 1.56 1.56 0.0 0 1 355.69 145.01
  Q 353.45 152.83 347.01 155.28
  A 0.53 0.53 0.0 0 0 346.86 156.18
  Q 349.27 158.20 351.73 160.20
  Q 354.12 162.15 356.07 164.46
  Q 358.67 167.52 361.64 170.19
  A 0.35 0.35 0.0 0 0 362.22 169.98
  C 362.99 165.31 368.99 160.95 372.96 158.16
  Q 374.55 157.04 372.62 156.79
  Q 368.40 156.24 365.39 153.88
  Q 364.15 152.90 364.29 154.47
  C 364.54 157.31 361.10 159.92 359.15 161.48
  Q 357.67 162.66 355.62 162.47
  Q 355.13 162.42 355.03 161.93
  Q 354.49 159.17 355.77 157.76
  C 360.23 152.81 363.65 146.13 356.33 141.46
  C 355.93 141.20 355.33 141.17 354.88 141.35
  Q 354.16 141.64 354.37 140.89
  Z
  M 244.4789 146.7678
  A 0.68 0.68 0.0 0 0 243.7978 146.0890
  L 231.1778 146.1110
  A 0.68 0.68 0.0 0 0 230.4990 146.7922
  L 230.5211 159.4522
  A 0.68 0.68 0.0 0 0 231.2022 160.1310
  L 243.8222 160.1090
  A 0.68 0.68 0.0 0 0 244.5010 159.4278
  L 244.4789 146.7678
  Z
  M 141.10 156.48
  Q 140.88 156.33 140.63 156.32
  A 0.71 0.71 0.0 0 0 139.88 156.96
  Q 139.46 161.63 136.99 164.73
  A 0.53 0.53 0.0 0 0 137.54 165.58
  C 140.44 164.85 143.52 168.49 145.39 170.68
  Q 145.78 171.14 145.88 171.73
  L 146.34 174.48
  A 0.42 0.42 0.0 0 1 146.00 174.96
  Q 143.58 175.36 141.84 174.24
  C 137.50 171.46 134.08 168.24 128.68 171.59
  C 126.00 173.26 122.64 178.26 124.92 181.49
  A 1.83 1.82 -42.7 0 0 127.82 181.60
  Q 129.13 180.02 129.58 178.16
  A 1.17 1.17 0.0 0 0 128.43 176.71
  Q 127.23 176.73 127.05 175.63
  A 0.77 0.77 0.0 0 1 127.81 174.74
  Q 130.91 174.74 133.47 176.62
  A 0.49 0.48 -32.2 0 1 133.27 177.49
  C 129.24 178.24 127.48 183.86 130.18 186.80
  C 134.16 191.12 140.86 187.58 140.08 181.86
  A 0.66 0.66 0.0 0 1 140.72 181.11
  C 143.44 181.06 145.03 178.01 146.20 175.97
  Q 147.04 174.50 148.17 173.37
  Q 150.99 170.53 153.80 167.59
  A 0.38 0.38 0.0 0 0 153.61 166.96
  C 150.09 166.08 143.50 161.80 143.31 157.17
  A 1.57 1.57 0.0 0 1 145.35 155.61
  Q 152.99 158.03 155.07 165.05
  A 0.57 0.57 0.0 0 0 156.03 165.28
  L 162.28 158.80
  Q 163.35 157.70 161.81 157.69
  C 159.92 157.67 158.33 156.73 157.08 155.40
  C 153.14 151.21 147.81 148.78 142.89 153.53
  Q 141.80 154.59 141.82 156.10
  Q 141.84 157.00 141.10 156.48
  Z
  M 208.25 158.49
  A 0.75 0.75 0.0 0 0 207.50 157.74
  L 192.18 157.74
  A 0.75 0.75 0.0 0 0 191.43 158.49
  L 191.43 173.75
  A 0.75 0.75 0.0 0 0 192.18 174.50
  L 207.50 174.50
  A 0.75 0.75 0.0 0 0 208.25 173.75
  L 208.25 158.49
  Z
  M 381.35 168.11
  Q 381.49 168.01 381.57 167.83
  Q 381.78 167.34 381.29 167.13
  C 378.83 166.04 376.02 165.19 374.21 163.09
  Q 373.10 161.81 372.94 163.49
  C 372.65 166.48 369.47 168.16 367.25 169.72
  C 365.94 170.64 364.44 170.53 362.93 170.48
  A 0.42 0.42 0.0 0 0 362.58 171.14
  L 368.24 178.80
  A 0.36 0.35 39.7 0 0 368.84 178.75
  C 370.57 175.28 375.94 169.32 380.54 170.26
  A 1.50 1.50 0.0 0 1 381.57 172.43
  Q 377.53 180.09 370.32 180.50
  A 0.48 0.47 69.9 0 0 369.97 181.26
  L 375.52 188.70
  Q 376.54 190.06 376.83 188.39
  C 377.04 187.20 377.29 185.98 378.33 185.23
  C 382.12 182.50 385.96 179.75 385.61 174.59
  Q 385.32 170.38 381.44 168.87
  Q 380.67 168.58 381.35 168.11
  Z
  M 251.1756 175.2199
  A 0.74 0.74 0.0 0 0 250.4395 174.4760
  L 240.5197 174.4241
  A 0.74 0.74 0.0 0 0 239.7758 175.1602
  L 239.7244 184.9801
  A 0.74 0.74 0.0 0 0 240.4605 185.7240
  L 250.3803 185.7759
  A 0.74 0.74 0.0 0 0 251.1242 185.0398
  L 251.1756 175.2199
  Z
  M 296.18 177.74
  A 0.76 0.76 0.0 0 0 295.42 176.98
  L 280.08 176.98
  A 0.76 0.76 0.0 0 0 279.32 177.74
  L 279.32 192.98
  A 0.76 0.76 0.0 0 0 280.08 193.74
  L 295.42 193.74
  A 0.76 0.76 0.0 0 0 296.18 192.98
  L 296.18 177.74
  Z
  M 398.22 195.82
  Q 398.47 194.23 399.00 195.74
  L 400.13 198.93
  Q 400.74 200.66 402.26 199.65
  L 402.90 199.23
  A 2.07 2.07 0.0 0 0 403.66 196.70
  C 402.73 194.48 400.70 193.33 398.28 193.09
  Q 397.51 193.02 397.25 192.29
  C 395.26 186.91 387.25 179.56 383.05 187.93
  C 382.70 188.63 382.60 189.67 382.62 190.45
  Q 382.64 191.09 382.01 190.99
  L 380.55 190.75
  A 1.65 1.64 81.7 0 0 378.81 193.09
  C 380.97 197.57 382.52 202.56 378.70 206.62
  C 376.54 208.92 373.35 208.01 372.47 205.00
  Q 371.33 201.10 373.27 198.35
  C 373.94 197.40 375.22 196.95 376.18 196.34
  Q 377.51 195.50 377.03 194.00
  C 375.94 190.57 371.90 187.34 369.70 192.29
  C 366.43 199.67 370.27 209.04 378.74 210.17
  C 385.73 211.11 388.89 204.71 384.67 199.45
  Q 382.52 196.78 380.95 193.74
  A 0.67 0.67 0.0 0 1 381.38 192.79
  L 381.65 192.72
  Q 382.43 192.51 382.64 193.29
  Q 384.07 198.54 387.68 201.75
  C 389.54 203.40 392.62 204.81 395.01 203.36
  Q 398.32 201.35 398.12 197.67
  Q 398.07 196.73 398.22 195.82
  Z
  M 219.73 188.48
  A 0.65 0.65 0.0 0 0 219.08 187.83
  L 208.68 187.83
  A 0.65 0.65 0.0 0 0 208.03 188.48
  L 208.03 198.68
  A 0.65 0.65 0.0 0 0 208.68 199.33
  L 219.08 199.33
  A 0.65 0.65 0.0 0 0 219.73 198.68
  L 219.73 188.48
  Z
  M 129.96 198.28
  A 1.46 1.45 24.3 0 1 128.36 198.88
  C 122.90 197.38 113.50 193.58 110.56 188.38
  A 0.55 0.55 0.0 0 0 109.59 188.40
  L 104.95 197.24
  A 0.48 0.47 11.1 0 0 105.42 197.93
  C 107.07 197.74 108.78 197.43 110.32 198.24
  Q 116.74 201.61 122.90 204.83
  C 123.95 205.38 124.70 206.21 125.14 207.32
  Q 126.00 209.45 127.07 207.42
  L 134.58 193.17
  A 1.69 1.68 -58.4 0 0 134.07 191.02
  L 130.22 188.28
  Q 128.71 187.21 129.30 188.97
  C 130.34 192.05 131.90 195.31 129.96 198.28
  Z
  M 274.4694 194.5878
  A 0.85 0.85 0.0 0 0 273.6179 193.7393
  L 261.3579 193.7607
  A 0.85 0.85 0.0 0 0 260.5094 194.6122
  L 260.5306 206.7322
  A 0.85 0.85 0.0 0 0 261.3821 207.5807
  L 273.6421 207.5593
  A 0.85 0.85 0.0 0 0 274.4906 206.7078
  L 274.4694 194.5878
  Z
  M 335.4864 204.8053
  A 0.56 0.56 0.0 0 0 334.9254 204.2463
  L 319.2254 204.2737
  A 0.56 0.56 0.0 0 0 318.6664 204.8347
  L 318.6936 220.4547
  A 0.56 0.56 0.0 0 0 319.2546 221.0137
  L 334.9546 220.9863
  A 0.56 0.56 0.0 0 0 335.5136 220.4253
  L 335.4864 204.8053
  Z
  M 301.9674 207.6202
  A 0.66 0.66 0.0 0 0 301.3097 206.9579
  L 291.0498 206.9221
  A 0.66 0.66 0.0 0 0 290.3875 207.5798
  L 290.3526 217.5598
  A 0.66 0.66 0.0 0 0 291.0103 218.2221
  L 301.2702 218.2579
  A 0.66 0.66 0.0 0 0 301.9325 217.6002
  L 301.9674 207.6202
  Z
  M 227.7358 208.1231
  A 0.78 0.78 0.0 0 0 226.9530 207.3458
  L 218.8131 207.3742
  A 0.78 0.78 0.0 0 0 218.0358 208.1570
  L 218.0642 216.2969
  A 0.78 0.78 0.0 0 0 218.8470 217.0742
  L 226.9869 217.0458
  A 0.78 0.78 0.0 0 0 227.7642 216.2630
  L 227.7358 208.1231
  Z
  M 250.1493 208.2079
  A 0.73 0.73 0.0 0 0 249.4180 207.4792
  L 237.0380 207.5008
  A 0.73 0.73 0.0 0 0 236.3093 208.2321
  L 236.3307 220.5321
  A 0.73 0.73 0.0 0 0 237.0620 221.2608
  L 249.4420 221.2392
  A 0.73 0.73 0.0 0 0 250.1707 220.5079
  L 250.1493 208.2079
  Z
  M 199.83 210.47
  A 0.49 0.49 0.0 0 0 199.34 209.98
  L 186.46 209.98
  A 0.49 0.49 0.0 0 0 185.97 210.47
  L 185.97 223.25
  A 0.49 0.49 0.0 0 0 186.46 223.74
  L 199.34 223.74
  A 0.49 0.49 0.0 0 0 199.83 223.25
  L 199.83 210.47
  Z
  M 270.7280 220.1201
  A 0.62 0.62 0.0 0 0 270.1102 219.4980
  L 259.8302 219.4621
  A 0.62 0.62 0.0 0 0 259.2081 220.0799
  L 259.1720 230.4199
  A 0.62 0.62 0.0 0 0 259.7898 231.0420
  L 270.0698 231.0779
  A 0.62 0.62 0.0 0 0 270.6919 230.4601
  L 270.7280 220.1201
  Z
  M 229.95 228.10
  A 0.61 0.61 0.0 0 0 229.34 227.49
  L 216.48 227.49
  A 0.61 0.61 0.0 0 0 215.87 228.10
  L 215.87 240.66
  A 0.61 0.61 0.0 0 0 216.48 241.27
  L 229.34 241.27
  A 0.61 0.61 0.0 0 0 229.95 240.66
  L 229.95 228.10
  Z
  M 250.21 364.32
  Q 258.34 359.07 263.31 356.34
  Q 275.67 349.56 290.38 346.47
  Q 309.03 342.55 327.63 344.88
  Q 328.25 344.96 327.87 344.47
  Q 321.57 336.36 314.00 332.54
  Q 300.89 325.93 285.94 325.73
  Q 283.74 325.70 282.06 324.57
  A 1.02 1.01 53.0 0 1 282.31 322.76
  C 288.08 320.89 294.56 321.66 300.63 322.22
  Q 305.34 322.66 301.04 320.69
  Q 294.39 317.65 286.77 314.00
  Q 282.17 311.80 278.32 308.72
  A 1.04 1.04 0.0 0 1 278.81 306.88
  Q 280.82 306.57 282.87 307.28
  Q 291.28 310.21 299.89 313.92
  Q 301.85 314.76 304.01 315.28
  Q 306.30 315.83 304.77 314.03
  Q 302.42 311.27 299.53 309.05
  Q 292.51 303.64 286.03 298.08
  Q 284.53 296.79 283.47 295.15
  Q 281.81 292.57 284.71 293.55
  Q 288.66 294.87 292.31 297.38
  Q 300.69 303.12 308.82 308.79
  Q 311.36 310.56 309.60 308.01
  Q 309.02 307.18 307.28 305.41
  Q 302.81 300.86 297.91 295.84
  Q 295.40 293.27 293.75 290.06
  A 1.09 1.09 0.0 0 1 295.01 288.51
  Q 297.65 289.26 299.79 291.21
  Q 306.72 297.53 313.33 304.30
  C 315.16 306.17 320.07 310.38 322.27 306.70
  C 324.31 303.30 323.59 298.76 322.74 295.02
  C 322.17 292.49 322.55 289.88 324.26 287.87
  A 1.63 1.62 39.9 0 1 326.52 287.67
  Q 327.91 288.79 328.40 290.57
  Q 331.30 301.10 332.75 313.39
  C 334.03 324.20 338.88 331.37 346.45 339.37
  A 0.26 0.26 0.0 0 0 346.90 339.24
  L 367.39 236.83
  Q 367.72 235.17 366.03 235.06
  C 355.85 234.42 345.54 234.16 335.28 235.11
  Q 295.52 238.79 259.24 257.72
  Q 253.55 260.68 250.11 263.02
  Q 209.59 238.99 162.97 235.05
  C 153.45 234.24 143.63 234.47 134.01 235.11
  Q 132.67 235.20 132.94 236.51
  L 153.39 338.97
  A 0.34 0.33 -28.8 0 0 153.96 339.13
  C 160.28 332.44 165.92 324.99 167.09 315.63
  Q 168.59 303.54 171.21 292.37
  C 171.63 290.56 173.73 285.13 176.30 288.20
  C 180.51 293.21 174.01 300.99 178.24 307.08
  Q 178.55 307.54 179.07 307.69
  Q 182.35 308.69 185.20 305.81
  Q 192.13 298.78 199.79 291.60
  Q 201.92 289.60 204.20 288.87
  Q 207.91 287.67 205.98 291.07
  Q 204.54 293.61 202.23 295.95
  Q 196.01 302.29 189.78 308.76
  Q 189.74 308.81 189.77 308.85
  L 189.98 309.10
  Q 190.26 309.43 190.61 309.19
  Q 198.98 303.38 207.27 297.76
  Q 211.56 294.85 216.37 293.22
  A 0.85 0.85 0.0 0 1 217.45 293.76
  Q 217.64 294.31 217.22 294.83
  Q 215.17 297.39 212.89 299.25
  Q 206.43 304.54 199.36 310.09
  Q 196.78 312.11 195.07 314.59
  Q 194.32 315.68 195.60 315.37
  Q 199.11 314.52 202.52 312.99
  C 206.79 311.08 218.79 305.65 221.88 307.08
  A 0.80 0.80 0.0 0 1 222.14 308.35
  Q 220.22 310.48 217.40 311.90
  Q 208.00 316.65 199.70 320.48
  Q 194.32 322.97 200.19 322.14
  C 205.61 321.38 213.16 320.68 218.28 322.96
  A 0.85 0.85 0.0 0 1 218.40 324.45
  C 215.94 326.09 211.16 326.05 208.19 326.20
  C 200.24 326.58 191.80 329.64 184.90 333.34
  C 179.99 335.98 175.93 340.12 172.45 344.30
  Q 171.95 344.90 172.72 344.80
  C 199.48 341.54 226.58 347.69 248.57 363.67
  Q 249.28 364.18 250.21 364.32
  Z
  M 254.9627 235.8117
  A 0.60 0.60 0.0 0 0 254.3617 235.2127
  L 246.0217 235.2273
  A 0.60 0.60 0.0 0 0 245.4227 235.8283
  L 245.4373 244.1683
  A 0.60 0.60 0.0 0 0 246.0383 244.7673
  L 254.3783 244.7527
  A 0.60 0.60 0.0 0 0 254.9773 244.1517
  L 254.9627 235.8117
  Z
  M 226.49 371.42
  A 0.38 0.37 -10.4 0 1 227.03 371.79
  Q 226.40 378.98 225.38 386.19
  Q 224.98 388.98 222.90 390.40
  Q 221.09 391.63 223.26 391.91
  L 233.74 393.28
  A 0.30 0.30 0.0 0 0 234.06 392.91
  Q 232.22 386.03 233.74 378.76
  Q 234.07 377.17 236.89 375.98
  A 1.18 1.18 0.0 0 1 238.30 376.38
  Q 239.33 377.79 239.63 379.56
  Q 241.04 387.87 236.71 392.92
  A 0.49 0.49 0.0 0 0 237.02 393.73
  L 247.74 395.17
  Q 249.43 395.40 248.32 394.10
  C 247.24 392.83 246.59 391.22 246.82 389.54
  C 247.48 384.71 248.14 379.76 244.36 376.19
  C 242.25 374.20 238.17 372.76 235.50 374.79
  Q 233.71 376.15 234.30 373.98
  L 236.28 366.73
  A 0.63 0.62 -2.3 0 0 235.46 365.98
  L 228.11 368.65
  A 0.67 0.67 0.0 0 1 227.26 368.28
  Q 224.40 361.29 216.30 359.61
  Q 208.88 358.08 206.47 364.82
  C 205.52 367.46 206.80 370.55 208.25 372.75
  C 209.87 375.22 214.09 380.15 213.74 383.09
  A 2.05 2.04 7.3 0 1 211.42 384.88
  C 207.33 384.30 205.39 378.14 204.72 374.62
  Q 203.90 370.28 202.24 374.38
  Q 200.83 377.87 199.30 381.32
  A 0.50 0.50 0.0 0 0 199.75 382.02
  C 201.53 382.04 203.96 381.53 205.32 383.04
  Q 208.72 386.80 213.80 387.22
  C 221.28 387.85 224.80 382.23 220.73 375.44
  Q 218.18 371.17 215.96 367.35
  Q 214.62 365.05 215.89 362.72
  C 216.97 360.72 220.57 361.91 219.62 364.50
  C 219.11 365.90 218.37 367.64 219.17 369.05
  Q 221.79 373.65 226.49 371.42
  Z
  M 286.73 387.24
  Q 291.98 386.67 295.01 382.12
  C 298.04 377.54 296.65 371.37 291.87 368.67
  C 287.50 366.21 281.89 366.88 278.37 370.69
  C 276.41 372.80 274.81 374.95 272.13 376.24
  A 0.82 0.82 0.0 0 0 272.22 377.75
  Q 274.55 378.55 275.45 380.80
  Q 278.46 388.25 281.26 395.38
  C 281.89 397.00 281.39 398.48 280.81 400.00
  Q 280.35 401.23 281.56 400.74
  L 291.73 396.62
  A 0.64 0.64 0.0 0 0 291.87 395.50
  Q 288.30 392.89 286.31 387.94
  Q 286.06 387.32 286.73 387.24
  Z
  M 272.1464 382.2855
  A 10.74 10.01 -8.7 0 0 260.0159 374.0152
  A 10.74 10.01 -8.7 0 0 250.9136 385.5345
  A 10.74 10.01 -8.7 0 0 263.0441 393.8048
  A 10.74 10.01 -8.7 0 0 272.1464 382.2855
  Z"
/>
<path fill="#ffffff" d="
  M 461.54 172.28
  C 438.60 123.21 398.22 86.54 347.08 68.02
  Q 323.26 59.40 297.02 57.25
  C 236.42 52.30 178.21 74.78 136.00 118.39
  C 113.86 141.25 96.91 170.49 88.41 201.91
  Q 70.17 269.35 96.33 332.98
  C 108.32 362.13 128.18 389.56 153.15 409.96
  Q 198.64 447.11 257.55 454.29
  Q 267.61 455.51 276.94 455.61
  Q 326.09 456.13 369.23 434.73
  Q 376.38 431.18 383.14 427.26
  Q 383.32 427.16 383.42 427.33
  L 383.43 427.33
  Q 383.48 427.42 383.40 427.49
  Q 342.99 455.46 294.50 463.71
  Q 241.56 472.71 188.88 455.02
  C 143.49 439.78 104.60 409.32 78.45 370.19
  C 45.78 321.30 34.34 261.47 46.64 203.85
  Q 57.80 151.61 91.31 111.18
  Q 116.40 80.91 150.68 61.20
  Q 167.17 51.73 182.80 46.15
  Q 192.17 42.81 201.86 40.01
  Q 223.73 33.71 249.00 32.54
  Q 293.02 30.51 334.53 45.98
  Q 369.86 59.13 397.69 82.44
  Q 441.29 118.94 461.85 172.13
  Q 461.91 172.29 461.75 172.36
  L 461.74 172.36
  Q 461.60 172.42 461.54 172.28
  Z"
/>
<path fill="#1e6eb7" d="
  M 249.62 74.78
  Q 250.20 74.70 250.77 74.63
  Q 255.99 74.04 261.09 73.55
  C 270.23 72.67 279.89 73.25 288.92 73.99
  C 339.70 78.19 387.92 104.38 419.11 144.71
  Q 453.48 189.16 458.21 246.26
  Q 459.05 256.37 458.65 266.05
  Q 456.10 328.47 416.90 377.13
  C 399.73 398.45 377.62 415.41 352.68 426.87
  Q 352.57 426.93 352.51 426.81
  L 352.51 426.81
  Q 352.45 426.70 352.56 426.64
  C 432.31 381.61 469.74 287.68 439.15 200.44
  C 413.07 126.07 341.64 76.61 263.38 76.79
  Q 245.47 76.84 228.63 79.40
  A 0.05 0.05 0.0 0 1 228.60 79.31
  Q 238.99 76.29 249.62 74.78
  Z"
/>
<path fill="#1e6eb7" d="
  M 293.11 429.33
  C 341.21 420.18 382.96 391.85 408.76 350.31
  C 426.13 322.33 435.24 289.37 434.12 256.26
  C 432.76 216.47 418.20 178.34 391.64 148.57
  Q 353.73 106.07 297.20 93.35
  C 294.78 92.81 292.35 92.83 289.98 91.65
  Q 289.88 91.60 289.99 91.62
  C 292.93 92.19 295.88 92.14 298.85 92.58
  C 348.71 99.99 391.84 128.66 418.18 171.39
  C 441.04 208.46 449.10 254.42 439.60 297.57
  C 424.34 366.88 367.45 420.89 296.67 429.61
  Q 294.91 429.82 293.13 429.71
  Q 291.61 429.61 293.11 429.33
  Z"
/>
<path fill="#d1276e" d="
  M 269.10 104.68
  Q 269.43 102.26 267.99 100.14
  A 0.53 0.53 0.0 0 1 268.48 99.31
  L 277.90 100.36
  A 0.75 0.75 0.0 0 1 278.40 101.59
  C 274.78 105.93 274.36 116.39 274.60 121.55
  A 1.75 1.73 -83.8 0 0 275.88 123.15
  C 278.81 123.94 281.93 121.61 283.93 119.60
  Q 285.17 118.35 285.08 120.11
  Q 284.95 122.72 283.61 125.14
  A 1.10 1.09 18.0 0 1 282.50 125.70
  L 265.49 123.44
  Q 263.77 123.21 265.11 122.10
  C 266.56 120.91 267.23 119.46 267.45 117.62
  Q 268.26 110.92 269.10 104.68
  Z"
/>
<path fill="#d1276e" d="
  M 230.16 108.03
  Q 228.66 108.48 230.20 108.79
  C 232.58 109.26 235.33 110.12 236.19 112.70
  C 238.56 119.84 228.80 122.94 223.49 122.72
  Q 222.69 122.69 222.76 123.48
  L 222.79 123.77
  A 0.78 0.77 81.4 0 0 223.72 124.46
  Q 227.30 123.69 230.67 122.40
  C 234.39 120.98 238.85 122.65 239.29 126.90
  C 239.89 132.74 234.62 137.45 229.26 138.05
  C 225.10 138.51 218.54 136.98 217.07 132.43
  Q 216.93 132.00 217.14 131.59
  Q 218.67 128.51 222.88 128.49
  A 1.73 1.71 -7.1 0 1 224.55 129.78
  Q 224.81 130.76 225.05 131.76
  C 226.30 137.09 237.11 137.21 235.48 131.58
  Q 234.51 128.20 230.82 126.67
  C 228.25 125.61 225.35 126.22 222.65 126.36
  A 2.63 2.59 56.7 0 1 221.25 126.06
  Q 219.22 125.01 220.97 123.26
  A 0.63 0.63 0.0 0 0 220.68 122.19
  Q 219.62 121.94 218.73 121.29
  C 214.77 118.39 215.36 114.24 218.86 111.55
  Q 222.44 108.78 226.90 108.47
  Q 227.42 108.43 227.61 107.94
  C 227.88 107.26 227.88 106.65 228.36 106.04
  Q 230.26 103.60 232.90 103.73
  Q 234.75 103.82 234.95 105.66
  Q 234.98 106.00 234.92 106.33
  A 1.82 1.82 0.0 0 1 232.91 107.81
  Q 231.45 107.64 230.16 108.03
  Z
  M 227.3604 121.0260
  A 5.56 2.64 78.9 0 0 228.8806 115.0617
  A 5.56 2.64 78.9 0 0 225.2196 110.1140
  A 5.56 2.64 78.9 0 0 223.6994 116.0783
  A 5.56 2.64 78.9 0 0 227.3604 121.0260
  Z"
/>
<path fill="#d1276e" d="
  M 246.66 117.89
  C 248.98 121.01 252.76 120.29 255.13 117.72
  A 0.56 0.56 0.0 0 1 256.09 118.01
  L 256.14 118.26
  Q 256.28 119.11 255.69 119.73
  Q 249.89 125.87 242.76 122.52
  C 239.89 121.17 238.23 118.25 238.18 115.04
  C 238.05 106.66 248.84 102.99 254.38 108.55
  C 258.52 112.70 252.31 118.06 248.01 117.17
  Q 247.44 117.05 246.89 117.21
  Q 246.28 117.39 246.66 117.89
  Z
  M 247.7622 115.7555
  A 4.08 2.12 87.3 0 0 249.6876 111.5801
  A 4.08 2.12 87.3 0 0 247.3778 107.6045
  A 4.08 2.12 87.3 0 0 245.4524 111.7799
  A 4.08 2.12 87.3 0 0 247.7622 115.7555
  Z"
/>
<ellipse fill="#FFFFFF" cx="0.00" cy="0.00" transform="translate(247.57,111.68) rotate(87.3)" rx="4.08" ry="2.12"/>
<ellipse fill="#FFFFFF" cx="0.00" cy="0.00" transform="translate(226.29,115.57) rotate(78.9)" rx="5.56" ry="2.64"/>
<path fill="#d1276e" d="
  M 293.78 122.26
  Q 293.70 122.49 293.77 122.72
  Q 294.10 123.85 294.97 124.56
  Q 297.92 126.97 302.27 125.25
  Q 302.92 124.99 302.78 125.67
  Q 302.59 126.60 301.78 127.10
  C 295.23 131.13 286.20 127.06 286.67 119.01
  Q 287.01 113.29 293.03 111.51
  Q 298.98 109.76 303.39 114.58
  C 306.16 117.60 304.35 121.50 300.76 122.54
  Q 297.68 123.42 294.93 121.85
  Q 294.11 121.38 293.78 122.26
  Z
  M 295.5883 120.7544
  A 4.04 2.22 107.9 0 0 298.9425 117.5923
  A 4.04 2.22 107.9 0 0 298.0717 113.0656
  A 4.04 2.22 107.9 0 0 294.7175 116.2277
  A 4.04 2.22 107.9 0 0 295.5883 120.7544
  Z"
/>
<ellipse fill="#FFFFFF" cx="0.00" cy="0.00" transform="translate(296.83,116.91) rotate(107.9)" rx="4.04" ry="2.22"/>
<path fill="#d1276e" d="
  M 206.48 121.80
  C 205.96 120.32 203.82 116.19 201.95 116.96
  Q 201.35 117.21 201.63 117.80
  L 202.41 119.50
  Q 202.67 120.05 202.30 120.52
  Q 200.60 122.70 197.58 122.49
  Q 197.08 122.45 196.91 121.98
  Q 196.01 119.49 197.99 117.68
  Q 203.26 112.88 209.20 115.89
  C 214.33 118.49 212.62 125.42 217.40 127.40
  A 0.49 0.49 0.0 0 1 217.48 128.26
  Q 213.28 131.03 209.55 129.67
  Q 208.99 129.46 208.63 129.94
  C 205.88 133.61 202.01 134.51 199.06 130.84
  Q 196.46 127.61 198.92 124.28
  Q 201.41 120.93 206.00 122.30
  A 0.39 0.39 0.0 0 0 206.48 121.80
  Z
  M 206.5287 129.5931
  A 2.98 2.29 69.6 0 0 207.6364 126.0018
  A 2.98 2.29 69.6 0 0 204.4513 124.0069
  A 2.98 2.29 69.6 0 0 203.3436 127.5982
  A 2.98 2.29 69.6 0 0 206.5287 129.5931
  Z"
/>
<path fill="#d1276e" d="
  M 316.34 119.93
  Q 315.59 117.62 314.80 119.91
  L 314.29 121.40
  Q 314.08 122.02 313.43 121.99
  Q 311.21 121.89 309.29 120.59
  A 1.32 1.30 -66.1 0 1 308.76 119.18
  Q 309.23 117.34 311.10 116.99
  Q 316.23 116.04 319.74 119.59
  C 324.16 124.05 321.65 128.54 319.81 133.35
  Q 319.10 135.21 320.22 137.21
  A 0.59 0.59 0.0 0 0 320.86 137.50
  C 324.16 136.79 326.04 133.04 327.25 130.26
  C 327.73 129.18 327.33 128.02 327.14 126.93
  Q 326.99 126.13 327.75 126.43
  Q 331.61 127.97 335.85 127.49
  Q 336.24 127.45 336.58 127.66
  Q 336.78 127.79 336.82 128.03
  A 0.85 0.83 -23.8 0 1 336.50 128.83
  Q 335.70 129.45 335.24 130.32
  Q 334.79 131.17 335.67 130.79
  Q 341.53 128.25 343.80 132.98
  Q 344.68 134.81 343.35 136.34
  Q 341.07 138.96 337.50 136.70
  A 1.78 1.78 0.0 0 1 337.10 134.04
  L 337.96 133.04
  A 0.59 0.58 -67.6 0 0 337.56 132.07
  C 335.65 131.95 333.64 132.59 332.49 134.22
  Q 329.50 138.47 329.45 142.92
  Q 329.44 143.67 328.77 143.34
  C 325.34 141.63 322.21 139.08 318.69 137.73
  C 316.92 137.05 313.44 135.87 312.92 133.82
  Q 312.68 132.88 311.74 133.12
  C 305.26 134.79 300.97 126.73 306.69 123.03
  C 309.34 121.32 313.34 122.44 315.03 125.33
  Q 315.40 125.96 315.68 125.29
  Q 317.05 122.09 316.34 119.93
  Z
  M 310.4840 131.1450
  A 2.88 2.32 112.8 0 0 313.7387 129.3890
  A 2.88 2.32 112.8 0 0 312.7160 125.8350
  A 2.88 2.32 112.8 0 0 309.4613 127.5910
  A 2.88 2.32 112.8 0 0 310.4840 131.1450
  Z"
/>
<path fill="#d1276e" d="
  M 190.86 137.42
  C 189.39 141.44 184.57 143.07 181.27 141.00
  C 178.04 138.98 177.66 134.55 173.81 133.60
  A 0.63 0.63 0.0 0 1 173.61 132.47
  Q 176.67 130.37 178.31 126.69
  Q 179.33 124.41 180.11 126.79
  C 181.41 130.74 183.36 134.94 186.60 137.55
  A 1.94 1.94 0.0 0 0 189.57 136.88
  Q 189.87 136.24 189.76 135.51
  Q 188.77 129.51 184.27 127.76
  A 0.51 0.51 0.0 0 1 184.18 126.85
  Q 187.08 124.99 188.54 121.74
  Q 190.12 118.22 191.23 121.91
  C 192.53 126.24 195.42 131.33 199.52 133.88
  A 0.53 0.53 0.0 0 1 199.51 134.79
  C 197.08 136.21 194.83 137.72 191.90 136.89
  Q 191.13 136.67 190.86 137.42
  Z"
/>
<ellipse fill="#FFFFFF" cx="0.00" cy="0.00" transform="translate(205.49,126.80) rotate(69.6)" rx="2.98" ry="2.29"/>
<ellipse fill="#FFFFFF" cx="0.00" cy="0.00" transform="translate(311.60,128.49) rotate(112.8)" rx="2.88" ry="2.32"/>
<path fill="#d1276e" d="
  M 165.97 135.27
  Q 166.65 135.18 167.32 135.09
  C 172.55 134.36 175.90 138.21 173.90 143.12
  C 172.39 146.79 169.29 149.46 165.63 151.01
  A 0.88 0.88 0.0 0 0 165.14 152.09
  L 165.22 152.33
  Q 165.37 152.79 165.84 152.70
  Q 166.98 152.50 167.82 151.62
  Q 170.17 149.13 172.60 147.03
  C 176.64 143.52 182.10 145.76 182.70 150.87
  Q 183.44 157.11 179.26 160.84
  C 175.46 164.22 169.03 166.06 164.52 162.96
  A 1.48 1.46 10.9 0 1 163.93 162.10
  C 163.26 159.36 165.81 156.89 168.24 156.26
  A 1.17 1.17 0.0 0 1 169.51 156.75
  Q 172.83 161.82 178.60 159.37
  C 181.35 158.20 181.87 154.67 179.47 152.87
  C 174.93 149.48 169.90 152.18 165.88 155.03
  Q 165.41 155.36 164.87 155.21
  Q 163.10 154.71 163.58 152.53
  Q 163.78 151.62 162.86 151.70
  C 158.19 152.08 154.62 149.34 156.08 144.33
  Q 157.45 139.61 162.37 136.71
  Q 162.74 136.49 162.78 136.06
  Q 162.84 135.49 162.77 134.91
  C 162.54 132.98 163.78 130.90 165.32 129.93
  Q 166.91 128.94 168.27 130.24
  Q 168.60 130.57 168.74 131.04
  Q 169.13 132.42 167.90 133.16
  L 165.70 134.49
  Q 164.03 135.50 165.97 135.27
  Z
  M 168.4932 147.7849
  A 5.55 2.66 52.7 0 0 167.2460 141.7581
  A 5.55 2.66 52.7 0 0 161.7668 138.9551
  A 5.55 2.66 52.7 0 0 163.0140 144.9819
  A 5.55 2.66 52.7 0 0 168.4932 147.7849
  Z"
/>
<path fill="#1e6eb7" d="
  M 376.36 151.20
  L 374.40 149.17
  Q 365.38 140.24 355.18 132.69
  Q 355.05 132.60 355.14 132.46
  L 355.14 132.46
  Q 355.20 132.38 355.28 132.42
  Q 376.11 145.12 391.58 163.99
  Q 425.09 204.86 427.16 257.81
  C 428.99 304.62 408.74 350.44 373.45 381.28
  C 333.60 416.12 278.56 428.75 227.60 414.36
  C 187.17 402.94 152.31 375.37 132.86 337.78
  Q 132.11 336.33 131.58 334.90
  Q 130.84 332.92 131.94 334.72
  C 145.81 357.40 163.77 376.00 186.20 389.61
  C 210.53 404.38 238.92 412.43 267.59 412.14
  C 346.91 411.31 411.79 351.33 419.10 272.50
  Q 420.02 262.59 419.51 252.51
  Q 416.55 194.38 376.36 151.20
  Z"
/>
<rect fill="#1e6eb7" x="-5.75" y="-5.68" transform="translate(270.68,140.57) rotate(-0.1)" width="11.50" height="11.36" rx="0.82"/>
<path fill="#d1276e" d="
  M 354.88 141.35
  C 355.33 141.17 355.93 141.20 356.33 141.46
  C 363.65 146.13 360.23 152.81 355.77 157.76
  Q 354.49 159.17 355.03 161.93
  Q 355.13 162.42 355.62 162.47
  Q 357.67 162.66 359.15 161.48
  C 361.10 159.92 364.54 157.31 364.29 154.47
  Q 364.15 152.90 365.39 153.88
  Q 368.40 156.24 372.62 156.79
  Q 374.55 157.04 372.96 158.16
  C 368.99 160.95 362.99 165.31 362.22 169.98
  A 0.35 0.35 0.0 0 1 361.64 170.19
  Q 358.67 167.52 356.07 164.46
  Q 354.12 162.15 351.73 160.20
  Q 349.27 158.20 346.86 156.18
  A 0.53 0.53 0.0 0 1 347.01 155.28
  Q 353.45 152.83 355.69 145.01
  A 1.56 1.56 0.0 0 0 354.41 143.04
  C 350.51 142.48 345.15 149.83 345.24 153.55
  A 0.64 0.64 0.0 0 1 344.19 154.06
  L 337.61 148.60
  Q 335.60 146.93 338.21 146.89
  C 340.42 146.86 341.27 145.15 342.64 143.82
  Q 345.43 141.12 345.23 137.68
  A 0.47 0.46 -75.7 0 1 345.94 137.25
  Q 349.05 139.18 353.21 139.34
  A 1.19 1.17 64.8 0 1 353.86 139.58
  Q 354.57 140.13 354.37 140.89
  Q 354.16 141.64 354.88 141.35
  Z"
/>
<ellipse fill="#FFFFFF" cx="0.00" cy="0.00" transform="translate(165.13,143.37) rotate(52.7)" rx="5.55" ry="2.66"/>
<rect fill="#d1276e" x="-6.99" y="-7.01" transform="translate(237.50,153.11) rotate(-0.1)" width="13.98" height="14.02" rx="0.68"/>
<path fill="#d1276e" d="
  M 374.40 149.17
  L 376.36 151.20
  C 376.97 155.86 370.54 156.00 368.91 152.55
  A 2.23 2.20 53.9 0 1 369.28 150.10
  Q 371.06 148.18 374.40 149.17
  Z"
/>
<path fill="#d1276e" d="
  M 141.82 156.10
  Q 141.80 154.59 142.89 153.53
  C 147.81 148.78 153.14 151.21 157.08 155.40
  C 158.33 156.73 159.92 157.67 161.81 157.69
  Q 163.35 157.70 162.28 158.80
  L 156.03 165.28
  A 0.57 0.57 0.0 0 1 155.07 165.05
  Q 152.99 158.03 145.35 155.61
  A 1.57 1.57 0.0 0 0 143.31 157.17
  C 143.50 161.80 150.09 166.08 153.61 166.96
  A 0.38 0.38 0.0 0 1 153.80 167.59
  Q 150.99 170.53 148.17 173.37
  Q 147.04 174.50 146.20 175.97
  C 145.03 178.01 143.44 181.06 140.72 181.11
  A 0.66 0.66 0.0 0 0 140.08 181.86
  C 140.86 187.58 134.16 191.12 130.18 186.80
  C 127.48 183.86 129.24 178.24 133.27 177.49
  A 0.49 0.48 -32.2 0 0 133.47 176.62
  Q 130.91 174.74 127.81 174.74
  A 0.77 0.77 0.0 0 0 127.05 175.63
  Q 127.23 176.73 128.43 176.71
  A 1.17 1.17 0.0 0 1 129.58 178.16
  Q 129.13 180.02 127.82 181.60
  A 1.83 1.82 -42.7 0 1 124.92 181.49
  C 122.64 178.26 126.00 173.26 128.68 171.59
  C 134.08 168.24 137.50 171.46 141.84 174.24
  Q 143.58 175.36 146.00 174.96
  A 0.42 0.42 0.0 0 0 146.34 174.48
  L 145.88 171.73
  Q 145.78 171.14 145.39 170.68
  C 143.52 168.49 140.44 164.85 137.54 165.58
  A 0.53 0.53 0.0 0 1 136.99 164.73
  Q 139.46 161.63 139.88 156.96
  A 0.71 0.71 0.0 0 1 140.63 156.32
  Q 140.88 156.33 141.10 156.48
  Q 141.84 157.00 141.82 156.10
  Z
  M 137.9910 183.0753
  A 2.91 2.24 37.1 0 0 137.0212 179.5334
  A 2.91 2.24 37.1 0 0 133.3490 179.5647
  A 2.91 2.24 37.1 0 0 134.3188 183.1066
  A 2.91 2.24 37.1 0 0 137.9910 183.0753
  Z"
/>
<rect fill="#1e6eb7" x="191.43" y="157.74" width="16.82" height="16.76" rx="0.75"/>
<path fill="#d1276e" d="
  M 381.44 168.87
  Q 385.32 170.38 385.61 174.59
  C 385.96 179.75 382.12 182.50 378.33 185.23
  C 377.29 185.98 377.04 187.20 376.83 188.39
  Q 376.54 190.06 375.52 188.70
  L 369.97 181.26
  A 0.48 0.47 69.9 0 1 370.32 180.50
  Q 377.53 180.09 381.57 172.43
  A 1.50 1.50 0.0 0 0 380.54 170.26
  C 375.94 169.32 370.57 175.28 368.84 178.75
  A 0.36 0.35 39.7 0 1 368.24 178.80
  L 362.58 171.14
  A 0.42 0.42 0.0 0 1 362.93 170.48
  C 364.44 170.53 365.94 170.64 367.25 169.72
  C 369.47 168.16 372.65 166.48 372.94 163.49
  Q 373.10 161.81 374.21 163.09
  C 376.02 165.19 378.83 166.04 381.29 167.13
  Q 381.78 167.34 381.57 167.83
  Q 381.49 168.01 381.35 168.11
  Q 380.67 168.58 381.44 168.87
  Z"
/>
<rect fill="#1e6eb7" x="-5.70" y="-5.65" transform="translate(245.45,180.10) rotate(0.3)" width="11.40" height="11.30" rx="0.74"/>
<rect fill="#1e6eb7" x="279.32" y="176.98" width="16.86" height="16.76" rx="0.76"/>
<ellipse fill="#FFFFFF" cx="0.00" cy="0.00" transform="translate(135.67,181.32) rotate(37.1)" rx="2.91" ry="2.24"/>
<path fill="#d1276e" d="
  M 398.22 195.82
  Q 398.07 196.73 398.12 197.67
  Q 398.32 201.35 395.01 203.36
  C 392.62 204.81 389.54 203.40 387.68 201.75
  Q 384.07 198.54 382.64 193.29
  Q 382.43 192.51 381.65 192.72
  L 381.38 192.79
  A 0.67 0.67 0.0 0 0 380.95 193.74
  Q 382.52 196.78 384.67 199.45
  C 388.89 204.71 385.73 211.11 378.74 210.17
  C 370.27 209.04 366.43 199.67 369.70 192.29
  C 371.90 187.34 375.94 190.57 377.03 194.00
  Q 377.51 195.50 376.18 196.34
  C 375.22 196.95 373.94 197.40 373.27 198.35
  Q 371.33 201.10 372.47 205.00
  C 373.35 208.01 376.54 208.92 378.70 206.62
  C 382.52 202.56 380.97 197.57 378.81 193.09
  A 1.65 1.64 81.7 0 1 380.55 190.75
  L 382.01 190.99
  Q 382.64 191.09 382.62 190.45
  C 382.60 189.67 382.70 188.63 383.05 187.93
  C 387.25 179.56 395.26 186.91 397.25 192.29
  Q 397.51 193.02 398.28 193.09
  C 400.70 193.33 402.73 194.48 403.66 196.70
  A 2.07 2.07 0.0 0 1 402.90 199.23
  L 402.26 199.65
  Q 400.74 200.66 400.13 198.93
  L 399.00 195.74
  Q 398.47 194.23 398.22 195.82
  Z
  M 395.3828 191.4141
  A 5.66 2.69 -28.1 0 0 389.1230 191.7071
  A 5.66 2.69 -28.1 0 0 385.3972 196.7459
  A 5.66 2.69 -28.1 0 0 391.6570 196.4529
  A 5.66 2.69 -28.1 0 0 395.3828 191.4141
  Z"
/>
<rect fill="#d1276e" x="208.03" y="187.83" width="11.70" height="11.50" rx="0.65"/>
<path fill="#d1276e" d="
  M 129.96 198.28
  C 131.90 195.31 130.34 192.05 129.30 188.97
  Q 128.71 187.21 130.22 188.28
  L 134.07 191.02
  A 1.69 1.68 -58.4 0 1 134.58 193.17
  L 127.07 207.42
  Q 126.00 209.45 125.14 207.32
  C 124.70 206.21 123.95 205.38 122.90 204.83
  Q 116.74 201.61 110.32 198.24
  C 108.78 197.43 107.07 197.74 105.42 197.93
  A 0.48 0.47 11.1 0 1 104.95 197.24
  L 109.59 188.40
  A 0.55 0.55 0.0 0 1 110.56 188.38
  C 113.50 193.58 122.90 197.38 128.36 198.88
  A 1.46 1.45 24.3 0 0 129.96 198.28
  Z"
/>
<ellipse fill="#FFFFFF" cx="0.00" cy="0.00" transform="translate(390.39,194.08) rotate(-28.1)" rx="5.66" ry="2.69"/>
<rect fill="#d1276e" x="-6.98" y="-6.91" transform="translate(267.50,200.66) rotate(-0.1)" width="13.96" height="13.82" rx="0.85"/>
<rect fill="#1e6eb7" x="-8.41" y="-8.37" transform="translate(327.09,212.63) rotate(-0.1)" width="16.82" height="16.74" rx="0.56"/>
<rect fill="#1e6eb7" x="-5.79" y="-5.65" transform="translate(296.16,212.59) rotate(0.2)" width="11.58" height="11.30" rx="0.66"/>
<rect fill="#1e6eb7" x="-4.85" y="-4.85" transform="translate(222.90,212.21) rotate(-0.2)" width="9.70" height="9.70" rx="0.78"/>
<rect fill="#1e6eb7" x="-6.92" y="-6.88" transform="translate(243.24,214.37) rotate(-0.1)" width="13.84" height="13.76" rx="0.73"/>
<rect fill="#1e6eb7" x="185.97" y="209.98" width="13.86" height="13.76" rx="0.49"/>
<rect fill="#1e6eb7" x="-5.76" y="-5.79" transform="translate(264.95,225.27) rotate(0.2)" width="11.52" height="11.58" rx="0.62"/>
<rect fill="#d1276e" x="215.87" y="227.49" width="14.08" height="13.78" rx="0.61"/>
<path fill="#1e6eb7" d="
  M 250.11 263.02
  L 250.21 364.32
  Q 249.28 364.18 248.57 363.67
  C 226.58 347.69 199.48 341.54 172.72 344.80
  Q 171.95 344.90 172.45 344.30
  C 175.93 340.12 179.99 335.98 184.90 333.34
  C 191.80 329.64 200.24 326.58 208.19 326.20
  C 211.16 326.05 215.94 326.09 218.40 324.45
  A 0.85 0.85 0.0 0 0 218.28 322.96
  C 213.16 320.68 205.61 321.38 200.19 322.14
  Q 194.32 322.97 199.70 320.48
  Q 208.00 316.65 217.40 311.90
  Q 220.22 310.48 222.14 308.35
  A 0.80 0.80 0.0 0 0 221.88 307.08
  C 218.79 305.65 206.79 311.08 202.52 312.99
  Q 199.11 314.52 195.60 315.37
  Q 194.32 315.68 195.07 314.59
  Q 196.78 312.11 199.36 310.09
  Q 206.43 304.54 212.89 299.25
  Q 215.17 297.39 217.22 294.83
  Q 217.64 294.31 217.45 293.76
  A 0.85 0.85 0.0 0 0 216.37 293.22
  Q 211.56 294.85 207.27 297.76
  Q 198.98 303.38 190.61 309.19
  Q 190.26 309.43 189.98 309.10
  L 189.77 308.85
  Q 189.74 308.81 189.78 308.76
  Q 196.01 302.29 202.23 295.95
  Q 204.54 293.61 205.98 291.07
  Q 207.91 287.67 204.20 288.87
  Q 201.92 289.60 199.79 291.60
  Q 192.13 298.78 185.20 305.81
  Q 182.35 308.69 179.07 307.69
  Q 178.55 307.54 178.24 307.08
  C 174.01 300.99 180.51 293.21 176.30 288.20
  C 173.73 285.13 171.63 290.56 171.21 292.37
  Q 168.59 303.54 167.09 315.63
  C 165.92 324.99 160.28 332.44 153.96 339.13
  A 0.34 0.33 -28.8 0 1 153.39 338.97
  L 132.94 236.51
  Q 132.67 235.20 134.01 235.11
  C 143.63 234.47 153.45 234.24 162.97 235.05
  Q 209.59 238.99 250.11 263.02
  Z"
/>
<path fill="#d1276e" d="
  M 250.21 364.32
  L 250.11 263.02
  Q 253.55 260.68 259.24 257.72
  Q 295.52 238.79 335.28 235.11
  C 345.54 234.16 355.85 234.42 366.03 235.06
  Q 367.72 235.17 367.39 236.83
  L 346.90 339.24
  A 0.26 0.26 0.0 0 1 346.45 339.37
  C 338.88 331.37 334.03 324.20 332.75 313.39
  Q 331.30 301.10 328.40 290.57
  Q 327.91 288.79 326.52 287.67
  A 1.63 1.62 39.9 0 0 324.26 287.87
  C 322.55 289.88 322.17 292.49 322.74 295.02
  C 323.59 298.76 324.31 303.30 322.27 306.70
  C 320.07 310.38 315.16 306.17 313.33 304.30
  Q 306.72 297.53 299.79 291.21
  Q 297.65 289.26 295.01 288.51
  A 1.09 1.09 0.0 0 0 293.75 290.06
  Q 295.40 293.27 297.91 295.84
  Q 302.81 300.86 307.28 305.41
  Q 309.02 307.18 309.60 308.01
  Q 311.36 310.56 308.82 308.79
  Q 300.69 303.12 292.31 297.38
  Q 288.66 294.87 284.71 293.55
  Q 281.81 292.57 283.47 295.15
  Q 284.53 296.79 286.03 298.08
  Q 292.51 303.64 299.53 309.05
  Q 302.42 311.27 304.77 314.03
  Q 306.30 315.83 304.01 315.28
  Q 301.85 314.76 299.89 313.92
  Q 291.28 310.21 282.87 307.28
  Q 280.82 306.57 278.81 306.88
  A 1.04 1.04 0.0 0 0 278.32 308.72
  Q 282.17 311.80 286.77 314.00
  Q 294.39 317.65 301.04 320.69
  Q 305.34 322.66 300.63 322.22
  C 294.56 321.66 288.08 320.89 282.31 322.76
  A 1.02 1.01 53.0 0 0 282.06 324.57
  Q 283.74 325.70 285.94 325.73
  Q 300.89 325.93 314.00 332.54
  Q 321.57 336.36 327.87 344.47
  Q 328.25 344.96 327.63 344.88
  Q 309.03 342.55 290.38 346.47
  Q 275.67 349.56 263.31 356.34
  Q 258.34 359.07 250.21 364.32
  Z"
/>
<rect fill="#1e6eb7" x="-4.77" y="-4.77" transform="translate(250.20,239.99) rotate(-0.1)" width="9.54" height="9.54" rx="0.60"/>
<path fill="#d1276e" d="
  M 226.49 371.42
  Q 221.79 373.65 219.17 369.05
  C 218.37 367.64 219.11 365.90 219.62 364.50
  C 220.57 361.91 216.97 360.72 215.89 362.72
  Q 214.62 365.05 215.96 367.35
  Q 218.18 371.17 220.73 375.44
  C 224.80 382.23 221.28 387.85 213.80 387.22
  Q 208.72 386.80 205.32 383.04
  C 203.96 381.53 201.53 382.04 199.75 382.02
  A 0.50 0.50 0.0 0 1 199.30 381.32
  Q 200.83 377.87 202.24 374.38
  Q 203.90 370.28 204.72 374.62
  C 205.39 378.14 207.33 384.30 211.42 384.88
  A 2.05 2.04 7.3 0 0 213.74 383.09
  C 214.09 380.15 209.87 375.22 208.25 372.75
  C 206.80 370.55 205.52 367.46 206.47 364.82
  Q 208.88 358.08 216.30 359.61
  Q 224.40 361.29 227.26 368.28
  A 0.67 0.67 0.0 0 0 228.11 368.65
  L 235.46 365.98
  A 0.63 0.62 -2.3 0 1 236.28 366.73
  L 234.30 373.98
  Q 233.71 376.15 235.50 374.79
  C 238.17 372.76 242.25 374.20 244.36 376.19
  C 248.14 379.76 247.48 384.71 246.82 389.54
  C 246.59 391.22 247.24 392.83 248.32 394.10
  Q 249.43 395.40 247.74 395.17
  L 237.02 393.73
  A 0.49 0.49 0.0 0 1 236.71 392.92
  Q 241.04 387.87 239.63 379.56
  Q 239.33 377.79 238.30 376.38
  A 1.18 1.18 0.0 0 0 236.89 375.98
  Q 234.07 377.17 233.74 378.76
  Q 232.22 386.03 234.06 392.91
  A 0.30 0.30 0.0 0 1 233.74 393.28
  L 223.26 391.91
  Q 221.09 391.63 222.90 390.40
  Q 224.98 388.98 225.38 386.19
  Q 226.40 378.98 227.03 371.79
  A 0.38 0.37 -10.4 0 0 226.49 371.42
  Z"
/>
<path fill="#d1276e" d="
  M 286.31 387.94
  Q 288.30 392.89 291.87 395.50
  A 0.64 0.64 0.0 0 1 291.73 396.62
  L 281.56 400.74
  Q 280.35 401.23 280.81 400.00
  C 281.39 398.48 281.89 397.00 281.26 395.38
  Q 278.46 388.25 275.45 380.80
  Q 274.55 378.55 272.22 377.75
  A 0.82 0.82 0.0 0 1 272.13 376.24
  C 274.81 374.95 276.41 372.80 278.37 370.69
  C 281.89 366.88 287.50 366.21 291.87 368.67
  C 296.65 371.37 298.04 377.54 295.01 382.12
  Q 291.98 386.67 286.73 387.24
  Q 286.06 387.32 286.31 387.94
  Z
  M 289.0028 385.0257
  A 8.32 3.03 68.4 0 0 288.7572 376.1746
  A 8.32 3.03 68.4 0 0 282.8772 369.5543
  A 8.32 3.03 68.4 0 0 283.1228 378.4054
  A 8.32 3.03 68.4 0 0 289.0028 385.0257
  Z"
/>
<ellipse fill="#FFFFFF" cx="0.00" cy="0.00" transform="translate(285.94,377.29) rotate(68.4)" rx="8.32" ry="3.03"/>
<path fill="#d1276e" d="
  M 272.1464 382.2855
  A 10.74 10.01 -8.7 0 1 263.0441 393.8048
  A 10.74 10.01 -8.7 0 1 250.9136 385.5345
  A 10.74 10.01 -8.7 0 1 260.0159 374.0152
  A 10.74 10.01 -8.7 0 1 272.1464 382.2855
  Z
  M 262.6170 392.2165
  A 8.37 3.00 82.4 0 0 264.4836 383.5232
  A 8.37 3.00 82.4 0 0 260.4030 375.6235
  A 8.37 3.00 82.4 0 0 258.5364 384.3168
  A 8.37 3.00 82.4 0 0 262.6170 392.2165
  Z"
/>
<ellipse fill="#FFFFFF" cx="0.00" cy="0.00" transform="translate(261.51,383.92) rotate(82.4)" rx="8.37" ry="3.00"/>
</svg>
