<?xml version="1.0" encoding="UTF-8" standalone="no"?>
<!DOCTYPE svg PUBLIC "-//W3C//DTD SVG 1.1//EN" "http://www.w3.org/Graphics/SVG/1.1/DTD/svg11.dtd">
<svg xmlns="http://www.w3.org/2000/svg" version="1.1" viewBox="0.00 0.00 512.00 512.00">
<path fill="#FFFFFF" d="
  M 248.52 0.00
  L 263.62 0.00
  Q 358.87 4.05 428.24 66.62
  C 480.35 113.63 508.98 178.15 512.00 248.58
  L 512.00 263.54
  C 509.45 337.33 475.95 406.40 419.68 452.92
  Q 352.25 508.65 263.24 512.00
  L 248.65 512.00
  C 178.89 509.65 112.99 479.59 66.78 428.50
  Q 3.95 359.04 0.00 263.71
  L 0.00 248.14
  C 3.00 179.33 30.60 116.10 80.79 69.40
  Q 150.85 4.21 248.52 0.00
  Z
  M 472.02 255.99
  A 216.02 216.02 0.0 0 0 256.00 39.97
  A 216.02 216.02 0.0 0 0 39.98 255.99
  A 216.02 216.02 0.0 0 0 256.00 472.01
  A 216.02 216.02 0.0 0 0 472.02 255.99
  Z"
/>
<path fill="#FFFFFF" d="
  M 255.64 284.77
  Q 226.26 313.96 196.93 343.18
  Q 188.10 351.97 176.49 348.53
  C 165.22 345.20 159.43 331.79 164.32 321.30
  Q 166.01 317.68 172.71 310.99
  Q 200.09 283.63 227.40 256.30
  Q 227.71 256.00 227.40 255.69
  Q 200.46 228.76 173.47 201.77
  Q 166.01 194.30 164.39 191.03
  C 156.29 174.65 174.27 156.45 190.88 164.41
  Q 194.43 166.11 201.36 173.04
  Q 228.56 200.25 255.73 227.40
  Q 256.02 227.69 256.31 227.40
  Q 283.66 200.04 311.07 172.64
  Q 317.82 165.90 321.19 164.30
  C 337.68 156.49 355.52 174.42 347.55 190.96
  Q 345.85 194.48 339.02 201.31
  Q 311.78 228.54 284.59 255.73
  A 0.41 0.40 -45.5 0 0 284.59 256.30
  Q 313.80 285.47 343.12 314.63
  C 355.85 327.30 348.12 348.56 329.99 349.44
  Q 321.66 349.85 315.16 343.34
  Q 285.84 314.00 256.40 284.77
  Q 256.02 284.39 255.64 284.77
  Z"
/>
</svg>
