<?xml version="1.0" encoding="UTF-8" standalone="no"?>
<!DOCTYPE svg PUBLIC "-//W3C//DTD SVG 1.1//EN" "http://www.w3.org/Graphics/SVG/1.1/DTD/svg11.dtd">
<svg xmlns="http://www.w3.org/2000/svg" version="1.1" viewBox="0.00 0.00 512.00 512.00">
<path fill="#FFFFFF" d="
  M 222.59 0.00
  L 228.50 0.00
  Q 232.41 0.50 236.23 1.37
  Q 297.44 15.29 316.93 19.85
  C 336.20 24.36 349.35 41.34 349.87 60.87
  C 350.04 67.12 348.38 73.85 346.63 80.08
  Q 346.47 80.66 347.05 80.79
  Q 381.96 88.77 417.06 96.88
  Q 431.74 100.28 433.79 101.19
  C 444.96 106.17 451.10 118.44 448.41 130.72
  Q 445.64 143.36 442.77 155.87
  A 0.41 0.41 0.0 0 1 442.27 156.18
  L 63.37 69.12
  A 0.54 0.54 0.0 0 1 62.96 68.47
  Q 66.02 54.97 69.22 41.49
  C 71.57 31.57 82.29 24.47 91.56 23.55
  Q 95.80 23.12 103.33 24.84
  Q 142.20 33.72 181.26 42.74
  A 0.49 0.49 0.0 0 0 181.85 42.36
  C 183.63 34.16 185.20 25.91 190.36 18.66
  Q 201.96 2.38 222.59 0.00
  Z
  M 198.57 46.61
  L 329.90 76.93
  A 0.25 0.25 0.0 0 0 330.20 76.74
  L 332.23 67.93
  A 27.20 26.42 13.0 0 0 311.67 36.06
  L 232.86 17.87
  A 27.20 26.42 13.0 0 0 200.42 37.49
  L 198.38 46.31
  A 0.25 0.25 0.0 0 0 198.57 46.61
  Z"
/>
<path fill="#FFFFFF" d="
  M 372.12 512.00
  L 119.96 512.00
  Q 106.54 509.76 101.45 498.67
  Q 99.70 494.86 98.95 487.03
  Q 83.97 329.67 68.94 171.91
  Q 68.88 171.31 69.49 171.31
  L 422.99 171.31
  A 0.29 0.29 0.0 0 1 423.28 171.63
  Q 408.49 326.63 393.76 481.61
  Q 392.50 494.82 390.54 499.08
  Q 385.66 509.65 372.12 512.00
  Z
  M 161.2470 206.4439
  A 8.48 8.48 0.0 0 0 152.3629 198.3883
  L 152.2431 198.3942
  A 8.48 8.48 0.0 0 0 144.1874 207.2783
  L 157.3730 476.8761
  A 8.48 8.48 0.0 0 0 166.2571 484.9317
  L 166.3769 484.9258
  A 8.48 8.48 0.0 0 0 174.4326 476.0417
  L 161.2470 206.4439
  Z
  M 254.66 206.87
  A 8.50 8.50 0.0 0 0 246.16 198.37
  L 246.04 198.37
  A 8.50 8.50 0.0 0 0 237.54 206.87
  L 237.54 476.43
  A 8.50 8.50 0.0 0 0 246.04 484.93
  L 246.16 484.93
  A 8.50 8.50 0.0 0 0 254.66 476.43
  L 254.66 206.87
  Z
  M 347.9926 207.2683
  A 8.48 8.48 0.0 0 0 339.9369 198.3842
  L 339.8171 198.3783
  A 8.48 8.48 0.0 0 0 330.9330 206.4339
  L 317.7474 476.0317
  A 8.48 8.48 0.0 0 0 325.8031 484.9158
  L 325.9229 484.9217
  A 8.48 8.48 0.0 0 0 334.8070 476.8661
  L 347.9926 207.2683
  Z"
/>
</svg>
