<?xml version="1.0" encoding="UTF-8" standalone="no"?>
<!DOCTYPE svg PUBLIC "-//W3C//DTD SVG 1.1//EN" "http://www.w3.org/Graphics/SVG/1.1/DTD/svg11.dtd">
<svg xmlns="http://www.w3.org/2000/svg" version="1.1" viewBox="0.00 0.00 512.00 512.00">
<path fill="#FFFFFF" d="
  M 409.87 0.00
  L 412.56 0.00
  C 416.31 0.58 420.41 0.69 423.78 1.51
  Q 439.09 5.20 450.30 16.45
  Q 472.76 38.98 495.32 61.43
  Q 510.50 76.54 512.00 98.13
  L 512.00 103.52
  Q 510.43 124.81 495.50 139.75
  Q 486.87 148.38 478.17 157.09
  A 0.35 0.34 -44.4 0 1 477.68 157.09
  L 354.81 34.23
  A 0.25 0.25 0.0 0 1 354.81 33.88
  Q 363.74 24.87 372.87 15.87
  Q 384.12 4.78 399.40 1.35
  C 402.50 0.66 406.39 0.57 409.87 0.00
  Z"
/>
<rect fill="#FFFFFF" x="-87.19" y="-208.76" transform="translate(247.43,264.54) rotate(45.0)" width="174.38" height="417.52" rx="0.39"/>
<path fill="#FFFFFF" d="
  M 15.69 512.00
  L 13.63 512.00
  Q 2.08 509.94 0.00 498.37
  L 0.00 496.18
  L 21.96 377.12
  A 0.19 0.19 0.0 0 1 22.28 377.02
  L 134.89 489.63
  A 0.25 0.25 0.0 0 1 134.76 490.06
  L 15.69 512.00
  Z"
/>
</svg>
