<?xml version="1.0" encoding="UTF-8" standalone="no"?>
<!DOCTYPE svg PUBLIC "-//W3C//DTD SVG 1.1//EN" "http://www.w3.org/Graphics/SVG/1.1/DTD/svg11.dtd">
<svg xmlns="http://www.w3.org/2000/svg" version="1.1" viewBox="0.00 0.00 512.00 512.00">
<path fill="#FFFFFF" d="
  M 360.33 0.00
  L 363.01 0.00
  Q 373.88 0.89 381.57 8.42
  Q 389.91 16.59 398.07 24.93
  C 408.97 36.09 409.02 53.76 398.27 64.52
  Q 302.72 160.09 206.91 255.88
  A 0.31 0.30 44.3 0 0 206.92 256.32
  Q 300.11 349.50 393.38 442.81
  Q 400.60 450.04 402.62 453.55
  C 408.74 464.20 406.59 478.04 398.22 486.74
  Q 392.65 492.54 381.34 503.59
  Q 373.61 511.16 362.69 512.00
  L 360.00 512.00
  Q 348.90 511.06 341.29 503.46
  Q 227.40 389.60 113.53 275.73
  C 105.13 267.33 103.15 252.79 109.20 242.30
  Q 111.18 238.87 118.65 231.40
  Q 229.95 120.08 341.27 8.77
  Q 349.13 0.90 360.33 0.00
  Z"
/>
</svg>
