<?xml version="1.0" encoding="UTF-8" standalone="no"?>
<!DOCTYPE svg PUBLIC "-//W3C//DTD SVG 1.1//EN" "http://www.w3.org/Graphics/SVG/1.1/DTD/svg11.dtd">
<svg xmlns="http://www.w3.org/2000/svg" version="1.1" viewBox="0.00 0.00 512.00 512.00">
<path fill="#FFFFFF" d="
  M 149.31 0.00
  L 152.00 0.00
  Q 163.10 0.93 170.33 8.16
  Q 284.09 121.91 397.81 235.69
  C 409.06 246.94 409.14 264.86 398.12 275.87
  Q 284.26 389.76 170.37 503.62
  Q 162.91 511.09 151.67 512.00
  L 148.96 512.00
  Q 138.02 511.10 130.27 503.48
  Q 117.14 490.57 113.64 486.86
  C 105.03 477.73 103.06 464.12 109.34 453.30
  Q 111.32 449.89 118.64 442.57
  Q 211.80 349.40 305.06 256.15
  Q 305.29 255.92 305.06 255.69
  Q 209.70 160.29 114.32 64.68
  C 103.22 53.54 103.01 36.53 113.95 25.20
  Q 122.12 16.75 130.51 8.51
  Q 138.30 0.85 149.31 0.00
  Z"
/>
</svg>
