<?xml version="1.0" encoding="UTF-8" standalone="no"?>
<!DOCTYPE svg PUBLIC "-//W3C//DTD SVG 1.1//EN" "http://www.w3.org/Graphics/SVG/1.1/DTD/svg11.dtd">
<svg xmlns="http://www.w3.org/2000/svg" version="1.1" viewBox="0.00 0.00 512.00 512.00">
<path fill="#FFFFFF" d="
  M 16.00 64.25
  C 16.00 41.41 31.72 22.06 53.60 17.26
  Q 59.50 15.96 73.51 15.98
  Q 116.62 16.03 159.68 16.00
  A 0.32 0.31 -0.0 0 1 160.00 16.31
  Q 160.00 76.72 160.00 137.19
  Q 160.00 148.74 161.51 153.66
  C 165.57 166.91 178.16 175.97 192.25 175.97
  Q 252.64 176.01 313.03 175.99
  Q 324.93 175.99 329.81 174.46
  C 339.90 171.29 348.12 162.67 350.88 152.38
  Q 351.98 148.27 351.99 139.03
  Q 352.01 78.36 352.00 17.10
  A 1.10 1.10 0.0 0 1 353.10 16.00
  Q 368.63 16.00 384.25 15.99
  C 390.83 15.99 394.05 19.35 399.17 24.47
  Q 445.77 71.05 492.35 117.66
  C 495.15 120.45 496.00 125.34 496.00 129.69
  Q 496.00 288.60 495.94 447.50
  C 495.93 474.18 474.85 496.06 448.00 496.02
  Q 432.13 495.99 416.31 496.00
  A 0.31 0.31 0.0 0 1 416.00 495.69
  Q 416.00 424.00 416.00 352.25
  C 416.00 329.72 400.02 309.28 377.68 304.99
  Q 372.46 303.99 357.75 303.99
  Q 251.00 304.00 144.25 304.00
  C 121.83 304.00 101.45 319.86 97.05 342.06
  Q 95.98 347.42 95.99 362.00
  Q 96.02 428.72 95.99 495.45
  Q 95.99 495.98 95.46 495.98
  Q 86.02 496.03 76.67 496.01
  Q 61.00 495.98 57.86 495.59
  C 38.24 493.12 21.46 478.07 17.21 458.66
  Q 16.00 453.17 16.00 438.75
  Q 16.00 251.50 16.00 64.25
  Z"
/>
<path fill="#FFFFFF" d="
  M 319.53 144.00
  L 192.47 144.00
  A 0.47 0.47 0.0 0 1 192.00 143.53
  L 192.00 16.47
  A 0.47 0.47 0.0 0 1 192.47 16.00
  L 319.53 16.00
  A 0.47 0.47 0.0 0 1 320.00 16.47
  L 320.00 143.53
  A 0.47 0.47 0.0 0 1 319.53 144.00
  Z"
/>
<path fill="#FFFFFF" d="
  M 369.25 336.00
  C 375.12 336.00 380.99 341.20 382.91 346.33
  Q 384.01 349.27 384.00 357.29
  Q 384.00 426.54 384.00 495.73
  A 0.27 0.27 0.0 0 1 383.73 496.00
  L 128.27 496.00
  A 0.27 0.26 -0.0 0 1 128.00 495.74
  Q 127.99 425.44 128.01 355.08
  C 128.01 346.87 130.08 340.39 137.79 337.32
  Q 141.12 335.99 148.88 335.99
  Q 259.07 336.01 369.25 336.00
  Z"
/>
</svg>
